<svg width="33" height="32" viewBox="0 0 33 32" fill="none" xmlns="http://www.w3.org/2000/svg">
<g clip-path="url(#clip0_115_13)">
<path fill-rule="evenodd" clip-rule="evenodd" d="M24.5 12C23.396 12 22.5 12.896 22.5 14C22.5 15.104 23.396 16 24.5 16C25.604 16 26.5 15.104 26.5 14C26.5 12.896 25.604 12 24.5 12ZM16.5 26C15.332 26 14.204 25.864 13.12 25.633L8.412 28.463L8.47501 23.824C4.86601 21.654 2.5 18.066 2.5 14C2.5 7.373 8.768 2 16.5 2C24.232 2 30.5 7.373 30.5 14C30.5 20.628 24.232 26 16.5 26ZM16.5 0C7.664 0 0.5 6.269 0.5 14C0.5 18.419 2.845 22.354 6.5 24.919V32L13.509 27.747C14.479 27.907 15.477 28 16.5 28C25.336 28 32.5 21.732 32.5 14C32.5 6.269 25.336 0 16.5 0ZM8.5 12C7.396 12 6.5 12.896 6.5 14C6.5 15.104 7.396 16 8.5 16C9.604 16 10.5 15.104 10.5 14C10.5 12.896 9.604 12 8.5 12ZM16.5 12C15.396 12 14.5 12.896 14.5 14C14.5 15.104 15.396 16 16.5 16C17.604 16 18.5 15.104 18.5 14C18.5 12.896 17.604 12 16.5 12Z" fill="#007A3D"/>
</g>
<defs>
<clipPath id="clip0_115_13">
<rect width="32" height="32" fill="white" transform="translate(0.5)"/>
</clipPath>
</defs>
</svg>
