<svg width="67" height="65" viewBox="0 0 67 65" fill="none" xmlns="http://www.w3.org/2000/svg">
<g clip-path="url(#clip0_115_28)">
<path d="M56.5 0H10.5C4.97715 0 0.5 4.47715 0.5 10V55C0.5 60.5228 4.97715 65 10.5 65H56.5C62.0228 65 66.5 60.5228 66.5 55V10C66.5 4.47715 62.0228 0 56.5 0Z" fill="#007A3D" fill-opacity="0.1"/>
<path d="M45.0737 18C45.8391 18 46.4604 18.6272 46.4604 19.4V24.6598L33.9816 37.2598L33.9733 43.193L39.8611 43.2014L46.4604 36.5388V44.6C46.4604 45.3728 45.8391 46 45.0737 46H22.8867C22.1212 46 21.5 45.3728 21.5 44.6V19.4C21.5 18.6272 22.1212 18 22.8867 18H45.0737ZM47.5392 27.5312L49.5 29.5108L38.7143 40.4L36.7508 40.3972L36.7536 38.4204L47.5392 27.5312ZM33.9802 32H27.0468V34.8H33.9802V32ZM38.1403 26.4H27.0468V29.2H38.1403V26.4Z" fill="#007A3D"/>
</g>
<defs>
<clipPath id="clip0_115_28">
<rect width="66" height="65" fill="white" transform="translate(0.5)"/>
</clipPath>
</defs>
</svg>
