<svg width="67" height="65" viewBox="0 0 67 65" fill="none" xmlns="http://www.w3.org/2000/svg">
<g clip-path="url(#clip0_115_25)">
<path d="M56.5 0H10.5C4.97715 0 0.5 4.47715 0.5 10V55C0.5 60.5228 4.97715 65 10.5 65H56.5C62.0228 65 66.5 60.5228 66.5 55V10C66.5 4.47715 62.0228 0 56.5 0Z" fill="#007A3D" fill-opacity="0.1"/>
<path d="M45.5 31.2894V43.3947C45.5012 43.5146 45.4659 43.632 45.3989 43.7315C45.3319 43.8309 45.2363 43.9076 45.1247 43.9515C45.0527 43.9849 44.9741 44.0014 44.8947 43.9999C44.8137 43.9999 44.7335 43.9838 44.6587 43.9526C44.5839 43.9215 44.516 43.8758 44.4589 43.8184L42.2679 41.5789H31.579C30.4553 41.5789 29.3776 41.1325 28.5831 40.338C27.7885 39.5434 27.3421 38.4657 27.3421 37.3421H36.421C38.0263 37.3421 39.5658 36.7044 40.7009 35.5693C41.836 34.4342 42.4737 32.8947 42.4737 31.2894V27.2342C43.3465 27.4958 44.112 28.0314 44.657 28.7617C45.202 29.492 45.4975 30.3782 45.5 31.2894ZM40.6579 31.2894V25.2368C40.6579 24.1132 40.2115 23.0355 39.4169 22.2409C38.6224 21.4464 37.5447 21 36.421 21H26.7369C25.6132 21 24.5355 21.4464 23.741 22.2409C22.9464 23.0355 22.5 24.1132 22.5 25.2368V37.3421C22.4988 37.462 22.5341 37.5794 22.6011 37.6788C22.6681 37.7783 22.7637 37.855 22.8753 37.8989C22.9473 37.9322 23.0259 37.9488 23.1053 37.9473C23.1863 37.9473 23.2665 37.9312 23.3413 37.9C23.4161 37.8689 23.484 37.8232 23.5411 37.7657L25.7321 35.5263H36.421C37.5447 35.5263 38.6224 35.0799 39.4169 34.2853C40.2115 33.4908 40.6579 32.4131 40.6579 31.2894Z" fill="#007A3D"/>
</g>
<defs>
<clipPath id="clip0_115_25">
<rect width="66" height="65" fill="white" transform="translate(0.5)"/>
</clipPath>
</defs>
</svg>
