<svg width="67" height="65" viewBox="0 0 67 65" fill="none" xmlns="http://www.w3.org/2000/svg">
<g clip-path="url(#clip0_115_20)">
<path d="M56.5 0H10.5C4.97715 0 0.5 4.47715 0.5 10V55C0.5 60.5228 4.97715 65 10.5 65H56.5C62.0228 65 66.5 60.5228 66.5 55V10C66.5 4.47715 62.0228 0 56.5 0Z" fill="#007A3D" fill-opacity="0.1"/>
<path d="M30.75 34.6351L32.3215 36.3951L36.25 31.9951" stroke="#007A3D" stroke-width="2" stroke-linecap="round" stroke-linejoin="round"/>
<path d="M22.5 31.9943C22.5 26.8088 22.5 24.2161 24.1109 22.6052C25.4758 21.2403 27.5456 21.0318 31.3 21M44.5 31.9943C44.5 26.8088 44.5 24.2161 42.889 22.6052C41.5242 21.2403 39.4544 21.0318 35.7 21" stroke="#007A3D" stroke-width="2" stroke-linecap="round"/>
<path d="M31.3 42.9945C28.2197 42.9945 26.6796 42.9945 25.5031 42.395C24.4682 41.8678 23.6268 41.0264 23.0995 39.9915C22.5 38.815 22.5 37.2749 22.5 34.1945C22.5 31.1142 22.5 29.5741 23.0995 28.3976C23.6268 27.3627 24.4682 26.5213 25.5031 25.994C26.6796 25.3945 28.2197 25.3945 31.3 25.3945H35.7C38.7803 25.3945 40.3204 25.3945 41.497 25.994C42.5319 26.5213 43.3733 27.3627 43.9005 28.3976C44.5 29.5741 44.5 31.1142 44.5 34.1945C44.5 37.2749 44.5 38.815 43.9005 39.9915C43.3733 41.0264 42.5319 41.8678 41.497 42.395C40.3204 42.9945 38.7803 42.9945 35.7 42.9945" stroke="#007A3D" stroke-width="2" stroke-linecap="round"/>
</g>
<defs>
<clipPath id="clip0_115_20">
<rect width="66" height="65" fill="white" transform="translate(0.5)"/>
</clipPath>
</defs>
</svg>
