<svg width="23" height="22" viewBox="0 0 23 22" fill="none" xmlns="http://www.w3.org/2000/svg">
<g clip-path="url(#clip0_115_31)">
<path d="M11.1637 16.5578L16.6637 13.3825L11.1637 10.207V12.1603H6.33594V14.6047H11.1637V16.5578Z" fill="#007A3D"/>
<path d="M6.61285 4.88867C5.93784 4.88867 5.39062 5.43589 5.39062 6.11089C5.39062 6.7859 5.93784 7.33312 6.61285 7.33312H16.3906C17.0657 7.33312 17.6128 6.7859 17.6128 6.11089C17.6128 5.43589 17.0657 4.88867 16.3906 4.88867H6.61285Z" fill="#007A3D"/>
<path fill-rule="evenodd" clip-rule="evenodd" d="M4.16667 0C2.14163 0 0.5 1.64163 0.5 3.66667V18.3333C0.5 20.3584 2.14163 22 4.16667 22H18.8333C20.8584 22 22.5 20.3584 22.5 18.3333V3.66667C22.5 1.64163 20.8584 0 18.8333 0H4.16667ZM18.8333 2.44444H4.16667C3.49166 2.44444 2.94444 2.99166 2.94444 3.66667V18.3333C2.94444 19.0084 3.49166 19.5556 4.16667 19.5556H18.8333C19.5084 19.5556 20.0556 19.0084 20.0556 18.3333V3.66667C20.0556 2.99166 19.5084 2.44444 18.8333 2.44444Z" fill="#007A3D"/>
</g>
<defs>
<clipPath id="clip0_115_31">
<rect width="22" height="22" fill="white" transform="translate(0.5)"/>
</clipPath>
</defs>
</svg>
