<svg width="65" height="64" viewBox="0 0 65 64" fill="none" xmlns="http://www.w3.org/2000/svg">
<path d="M22.5 14C12.5547 14 4.5 22.0547 4.5 32C4.5 41.9453 12.5547 50 22.5 50C32.4453 50 40.5 41.9453 40.5 32C40.5 30.7656 40.3672 29.5625 40.125 28.3984L40.0312 28H22.5V34H34.5C33.5469 39.6719 28.4453 44 22.5 44C15.875 44 10.5 38.625 10.5 32C10.5 25.375 15.875 20 22.5 20C25.5 20 28.2344 21.1094 30.3438 22.9297L34.6406 18.7188C31.4375 15.7891 27.1797 14 22.5 14ZM50.5 22V28H44.5V32H50.5V38H54.5V32H60.5V28H54.5V22H50.5Z" fill="#007A3D" fill-opacity="0.1" stroke="#007A3D" stroke-width="2"/>
</svg>
