<svg width="24" height="23" viewBox="0 0 24 23" fill="none" xmlns="http://www.w3.org/2000/svg">
<g clip-path="url(#clip0_115_45)">
<path d="M8.85156 15.7002C9.74446 16.362 10.8304 16.7502 12.0016 16.7502C13.1727 16.7502 14.2586 16.362 15.1516 15.7002" stroke="#007A3D" stroke-width="2" stroke-linecap="round"/>
<path d="M22.5 11.7141V13.3112C22.5 17.4071 22.5 19.4551 21.2698 20.7275C20.0397 22 18.0598 22 14.1 22H9.9C5.9402 22 3.96031 22 2.73015 20.7275C1.5 19.4551 1.5 17.4071 1.5 13.3112V11.7141C1.5 9.31126 1.5 8.10984 2.04516 7.11388C2.59032 6.11792 3.5863 5.49979 5.57823 4.26354L7.67823 2.96021C9.78386 1.6534 10.8367 1 12 1C13.1633 1 14.2161 1.6534 16.3218 2.96021L18.4218 4.26353C20.4138 5.49979 21.4097 6.11792 21.9548 7.11388" stroke="#007A3D" stroke-width="2" stroke-linecap="round"/>
</g>
<defs>
<clipPath id="clip0_115_45">
<rect width="23" height="23" fill="white" transform="translate(0.5)"/>
</clipPath>
</defs>
</svg>
