<svg width="25" height="24" viewBox="0 0 25 24" fill="none" xmlns="http://www.w3.org/2000/svg">
<g clip-path="url(#clip0_115_48)">
<path d="M9.75 14.6351L11.3215 16.3951L15.25 11.9951" stroke="#007A3D" stroke-width="2" stroke-linecap="round" stroke-linejoin="round"/>
<path d="M1.5 11.9943C1.5 6.80881 1.5 4.21609 3.11092 2.60518C4.47582 1.24027 6.54556 1.03183 10.3 1M23.5 11.9943C23.5 6.80881 23.5 4.21609 21.889 2.60518C20.5242 1.24027 18.4544 1.03183 14.7 1" stroke="#007A3D" stroke-width="2" stroke-linecap="round"/>
<path d="M10.3 22.9945C7.21971 22.9945 5.67957 22.9945 4.50306 22.395C3.46816 21.8678 2.62676 21.0264 2.09947 19.9915C1.5 18.815 1.5 17.2749 1.5 14.1945C1.5 11.1142 1.5 9.5741 2.09947 8.39759C2.62676 7.3627 3.46816 6.52129 4.50306 5.994C5.67957 5.39453 7.21971 5.39453 10.3 5.39453H14.7C17.7803 5.39453 19.3204 5.39453 20.497 5.994C21.5319 6.52129 22.3733 7.3627 22.9005 8.39759C23.5 9.5741 23.5 11.1142 23.5 14.1945C23.5 17.2749 23.5 18.815 22.9005 19.9915C22.3733 21.0264 21.5319 21.8678 20.497 22.395C19.3204 22.9945 17.7803 22.9945 14.7 22.9945" stroke="#007A3D" stroke-width="2" stroke-linecap="round"/>
</g>
<defs>
<clipPath id="clip0_115_48">
<rect width="24" height="24" fill="white" transform="translate(0.5)"/>
</clipPath>
</defs>
</svg>
