<svg width="106" height="40" viewBox="0 0 106 40" fill="none" xmlns="http://www.w3.org/2000/svg">
<path d="M5.62402 6.9126H21.7578C20.569 8.01266 19.5057 9.18418 18.5762 10.3335H5.62305C5.16669 10.3363 4.76762 10.5014 4.46191 10.7827L4.45996 10.7847C4.15612 11.0712 3.97133 11.4488 3.96973 11.8911V34.771C3.97131 35.2146 4.15633 35.591 4.45996 35.8774L4.46191 35.8794C4.76758 36.1605 5.16666 36.3258 5.62305 36.3286H30.2363C30.6953 36.3258 31.0927 36.1607 31.3984 35.8794L31.4004 35.8774C31.7036 35.5914 31.891 35.2153 31.8926 34.771V20.561C32.4577 20.0309 32.9236 19.4878 33.2588 18.9575C33.5759 18.4558 33.7827 17.9537 33.8389 17.48C34.4892 17.1372 35.0803 16.7583 35.6104 16.3608V34.771C35.6115 36.1335 35.0103 37.3892 34.0439 38.2856L34.043 38.2866C33.0789 39.1853 31.7199 39.7494 30.2354 39.7495H5.62402C4.14192 39.7494 2.78247 39.1854 1.81836 38.2866V38.2856L1.64062 38.1138C0.776409 37.2323 0.248883 36.0486 0.25 34.771V11.8921L0.256836 11.6382C0.320632 10.4585 0.8337 9.374 1.64062 8.54932L1.81836 8.37646C2.78271 7.47738 4.14213 6.91145 5.62402 6.9126Z" fill="#A67C52" fill-opacity="0.1" stroke="#A67C52" stroke-width="0.5"/>
<path d="M39.7354 0.550781C39.7483 0.837627 39.7576 1.23023 39.7412 1.69727C39.7056 2.71269 39.5563 4.07402 39.1055 5.4668C38.6547 6.85921 37.9045 8.27552 36.6719 9.41211C35.4415 10.5465 33.7163 11.4158 31.292 11.6953L30.5352 11.7822L31.1963 12.1602C31.4105 12.2826 31.9966 12.515 32.7783 12.626C33.5335 12.7331 34.4874 12.728 35.4834 12.3916C35.4806 12.4596 35.4454 12.5864 35.333 12.7725C35.102 13.155 34.6269 13.6704 33.9297 14.2021C32.54 15.262 30.3201 16.3458 27.5723 16.5547L27.5635 16.5557L27.5557 16.5566C27.2602 16.5999 27.0375 16.6518 26.8926 16.7168C26.8255 16.7469 26.736 16.7966 26.6787 16.8828C26.6463 16.9318 26.6222 16.996 26.625 17.0693C26.6278 17.141 26.6555 17.1998 26.6855 17.2422C26.7399 17.3187 26.8196 17.3661 26.8789 17.3955C26.945 17.4282 27.0227 17.4562 27.1055 17.4805C27.2719 17.5292 27.4844 17.5702 27.7227 17.6016C28.2001 17.6643 28.8067 17.6919 29.4102 17.6562C29.9546 17.6241 30.512 17.5382 30.9736 17.373C30.941 17.4437 30.8922 17.5306 30.8232 17.6318C30.5289 18.0641 29.9377 18.6858 29.0967 19.3291C27.4175 20.6135 24.7941 21.9472 21.6855 22.0381C19.4064 22.1046 17.7946 23.3164 16.4062 25.0947C15.0288 26.8591 13.8338 29.2337 12.415 31.6611C11.7027 32.8778 10.8235 33.0239 10.3438 32.7617C9.89699 32.5174 9.58098 31.7989 10.0859 30.7451L10.1982 30.5303L10.2021 30.5234V30.5225C10.2027 30.5213 10.2039 30.5198 10.2051 30.5176C10.2075 30.513 10.2111 30.506 10.2158 30.4971C10.2254 30.4789 10.2402 30.4513 10.2588 30.416C10.296 30.3455 10.3509 30.242 10.4209 30.1094C10.5613 29.8434 10.7634 29.4604 11.0098 28.9941C11.5025 28.0615 12.1727 26.7935 12.8828 25.4541C14.3037 22.7741 15.882 19.8097 16.5186 18.6611L16.5225 18.6543L16.5264 18.6465L16.5273 18.6455C16.5279 18.6444 16.5282 18.642 16.5293 18.6396C16.5317 18.6346 16.536 18.6266 16.541 18.6162C16.551 18.5955 16.5659 18.5642 16.5859 18.5234C16.6262 18.4419 16.6867 18.3215 16.7666 18.167C16.9268 17.8574 17.166 17.4108 17.4795 16.8662C18.1069 15.7764 19.0329 14.2944 20.2256 12.7275C22.6165 9.5864 26.0553 6.13504 30.2871 4.77734C34.52 3.41954 36.9723 2.27865 38.3711 1.4707C39.0377 1.08566 39.4658 0.774039 39.7354 0.550781Z" fill="#007A3D" fill-opacity="0.1" stroke="#007A3D" stroke-width="0.5"/>
<path d="M42.1705 33.12C41.5785 33.12 41.0265 33.012 40.5145 32.796C40.0025 32.572 39.5545 32.264 39.1705 31.872C38.7865 31.472 38.4865 31.012 38.2705 30.492C38.0625 29.972 37.9585 29.416 37.9585 28.824C37.9585 28.224 38.0625 27.668 38.2705 27.156C38.4865 26.636 38.7825 26.18 39.1585 25.788C39.5425 25.396 39.9865 25.092 40.4905 24.876C41.0025 24.66 41.5545 24.552 42.1465 24.552C42.7385 24.552 43.2865 24.66 43.7905 24.876C44.3025 25.092 44.7505 25.396 45.1345 25.788C45.5185 26.18 45.8185 26.636 46.0345 27.156C46.2505 27.676 46.3585 28.236 46.3585 28.836C46.3585 29.428 46.2505 29.984 46.0345 30.504C45.8185 31.024 45.5185 31.48 45.1345 31.872C44.7585 32.264 44.3145 32.572 43.8025 32.796C43.2985 33.012 42.7545 33.12 42.1705 33.12ZM42.1465 32.04C42.7465 32.04 43.2705 31.904 43.7185 31.632C44.1745 31.352 44.5345 30.972 44.7985 30.492C45.0625 30.004 45.1945 29.448 45.1945 28.824C45.1945 28.36 45.1185 27.936 44.9665 27.552C44.8145 27.16 44.6025 26.82 44.3305 26.532C44.0585 26.244 43.7385 26.024 43.3705 25.872C43.0025 25.712 42.5945 25.632 42.1465 25.632C41.5545 25.632 41.0305 25.768 40.5745 26.04C40.1265 26.312 39.7705 26.688 39.5065 27.168C39.2505 27.648 39.1225 28.2 39.1225 28.824C39.1225 29.288 39.1945 29.72 39.3385 30.12C39.4905 30.512 39.6985 30.852 39.9625 31.14C40.2345 31.42 40.5545 31.64 40.9225 31.8C41.2985 31.96 41.7065 32.04 42.1465 32.04ZM47.7139 33V24.432H48.7939V33H47.7139ZM50.386 33V27.3H51.466V33H50.386ZM50.926 26.16C50.726 26.16 50.562 26.096 50.434 25.968C50.306 25.832 50.242 25.664 50.242 25.464C50.242 25.272 50.306 25.112 50.434 24.984C50.562 24.848 50.726 24.78 50.926 24.78C51.126 24.78 51.29 24.848 51.418 24.984C51.546 25.112 51.61 25.272 51.61 25.464C51.61 25.664 51.546 25.832 51.418 25.968C51.29 26.096 51.126 26.16 50.926 26.16ZM55.0136 33L52.3976 27.3H53.5976L55.6976 32.112H55.0016L57.1136 27.3H58.2656L55.6496 33H55.0136ZM61.6039 33.12C61.0359 33.12 60.5239 32.992 60.0679 32.736C59.6119 32.472 59.2519 32.116 58.9879 31.668C58.7239 31.22 58.5919 30.712 58.5919 30.144C58.5919 29.584 58.7199 29.08 58.9759 28.632C59.2399 28.184 59.5919 27.832 60.0319 27.576C60.4799 27.312 60.9799 27.18 61.5319 27.18C62.0599 27.18 62.5239 27.3 62.9239 27.54C63.3319 27.78 63.6479 28.112 63.8719 28.536C64.1039 28.96 64.2199 29.44 64.2199 29.976C64.2199 30.056 64.2159 30.144 64.2079 30.24C64.1999 30.328 64.1839 30.432 64.1599 30.552H59.3479V29.652H63.5839L63.1879 30C63.1879 29.616 63.1199 29.292 62.9839 29.028C62.8479 28.756 62.6559 28.548 62.4079 28.404C62.1599 28.252 61.8599 28.176 61.5079 28.176C61.1399 28.176 60.8159 28.256 60.5359 28.416C60.2559 28.576 60.0399 28.8 59.8879 29.088C59.7359 29.376 59.6599 29.716 59.6599 30.108C59.6599 30.508 59.7399 30.86 59.8999 31.164C60.0599 31.46 60.2879 31.692 60.5839 31.86C60.8799 32.02 61.2199 32.1 61.6039 32.1C61.9239 32.1 62.2159 32.044 62.4799 31.932C62.7519 31.82 62.9839 31.652 63.1759 31.428L63.8719 32.136C63.5999 32.456 63.2639 32.7 62.8639 32.868C62.4719 33.036 62.0519 33.12 61.6039 33.12Z" fill="#007A3D" fill-opacity="0.1"/>
<path d="M40.5145 32.796L40.4143 33.0251L40.4174 33.0263L40.5145 32.796ZM39.1705 31.872L38.9902 32.0451L38.9919 32.0469L39.1705 31.872ZM38.2705 30.492L38.0384 30.5849L38.0397 30.5879L38.2705 30.492ZM38.2705 27.156L38.0397 27.0601L38.0389 27.0619L38.2705 27.156ZM39.1585 25.788L38.9799 25.613L38.9781 25.6149L39.1585 25.788ZM40.4905 24.876L40.3934 24.6457L40.3921 24.6462L40.4905 24.876ZM43.7905 24.876L43.6921 25.1058L43.6934 25.1063L43.7905 24.876ZM45.1345 25.788L45.3131 25.6131L45.1345 25.788ZM46.0345 27.156L45.8037 27.2519L45.8037 27.2519L46.0345 27.156ZM45.1345 31.872L44.9559 31.697L44.9541 31.6989L45.1345 31.872ZM43.8025 32.796L43.901 33.0258L43.9027 33.025L43.8025 32.796ZM43.7185 31.632L43.8483 31.8457L43.8493 31.845L43.7185 31.632ZM44.7985 30.492L45.0176 30.6125L45.0184 30.611L44.7985 30.492ZM44.9665 27.552L44.7334 27.6424L44.7341 27.644L44.9665 27.552ZM44.3305 26.532L44.1488 26.7037L44.1488 26.7037L44.3305 26.532ZM43.3705 25.872L43.2708 26.1013L43.2751 26.1031L43.3705 25.872ZM40.5745 26.04L40.4465 25.8253L40.4448 25.8263L40.5745 26.04ZM39.5065 27.168L39.2875 27.0475L39.2859 27.0504L39.5065 27.168ZM39.3385 30.12L39.1032 30.2047L39.1054 30.2104L39.3385 30.12ZM39.9625 31.14L39.7782 31.309L39.7832 31.3142L39.9625 31.14ZM40.9225 31.8L40.8228 32.0293L40.8246 32.03L40.9225 31.8ZM42.1705 33.12V32.87C41.6097 32.87 41.091 32.7679 40.6117 32.5657L40.5145 32.796L40.4174 33.0263C40.9621 33.2561 41.5474 33.37 42.1705 33.37V33.12ZM40.5145 32.796L40.6147 32.567C40.1315 32.3556 39.7103 32.0657 39.3491 31.6971L39.1705 31.872L38.9919 32.0469C39.3988 32.4623 39.8735 32.7884 40.4143 33.025L40.5145 32.796ZM39.1705 31.872L39.3509 31.6989C38.9887 31.3216 38.7057 30.8879 38.5014 30.3961L38.2705 30.492L38.0397 30.5879C38.2674 31.1361 38.5844 31.6224 38.9902 32.0451L39.1705 31.872ZM38.2705 30.492L38.5027 30.3992C38.3071 29.9103 38.2085 29.386 38.2085 28.824H37.9585H37.7085C37.7085 29.446 37.8179 30.0337 38.0384 30.5848L38.2705 30.492ZM37.9585 28.824H38.2085C38.2085 28.2535 38.3073 27.7297 38.5021 27.2501L38.2705 27.156L38.0389 27.0619C37.8178 27.6063 37.7085 28.1945 37.7085 28.824H37.9585ZM38.2705 27.156L38.5014 27.2519C38.706 26.7595 38.9852 26.3299 39.339 25.9611L39.1585 25.788L38.9781 25.6149C38.5799 26.0301 38.2671 26.5125 38.0397 27.0601L38.2705 27.156ZM39.1585 25.788L39.3371 25.9629C39.6983 25.5943 40.1151 25.3089 40.589 25.1058L40.4905 24.876L40.3921 24.6462C39.858 24.8751 39.3868 25.1977 38.9799 25.6131L39.1585 25.788ZM40.4905 24.876L40.5877 25.1063C41.067 24.9041 41.5857 24.802 42.1465 24.802V24.552V24.302C41.5234 24.302 40.9381 24.4159 40.3934 24.6457L40.4905 24.876ZM42.1465 24.552V24.802C42.7074 24.802 43.2216 24.9042 43.6921 25.1058L43.7905 24.876L43.889 24.6462C43.3515 24.4158 42.7697 24.302 42.1465 24.302V24.552ZM43.7905 24.876L43.6934 25.1063C44.1752 25.3096 44.5954 25.5949 44.9559 25.9629L45.1345 25.788L45.3131 25.6131C44.9056 25.1971 44.4299 24.8744 43.8877 24.6457L43.7905 24.876ZM45.1345 25.788L44.9559 25.9629C45.317 26.3316 45.5996 26.7606 45.8037 27.2519L46.0345 27.156L46.2654 27.0601C46.0375 26.5114 45.72 26.0284 45.3131 25.6131L45.1345 25.788ZM46.0345 27.156L45.8037 27.2519C46.0062 27.7395 46.1085 28.2667 46.1085 28.836H46.3585H46.6085C46.6085 28.2053 46.4948 27.6125 46.2654 27.0601L46.0345 27.156ZM46.3585 28.836H46.1085C46.1085 29.3968 46.0064 29.92 45.8037 30.4081L46.0345 30.504L46.2654 30.5999C46.4947 30.048 46.6085 29.4592 46.6085 28.836H46.3585ZM46.0345 30.504L45.8037 30.4081C45.5996 30.8994 45.317 31.3284 44.9559 31.6971L45.1345 31.872L45.3131 32.0469C45.72 31.6316 46.0375 31.1486 46.2654 30.5999L46.0345 30.504ZM45.1345 31.872L44.9541 31.6989C44.6016 32.0665 44.1851 32.3558 43.7023 32.567L43.8025 32.796L43.9027 33.025C44.444 32.7882 44.9155 32.4615 45.315 32.0451L45.1345 31.872ZM43.8025 32.796L43.7041 32.5662C43.2332 32.768 42.7229 32.87 42.1705 32.87V33.12V33.37C42.7862 33.37 43.3639 33.256 43.901 33.0258L43.8025 32.796ZM42.1465 32.04V32.29C42.7855 32.29 43.3558 32.1447 43.8483 31.8457L43.7185 31.632L43.5888 31.4183C43.1853 31.6633 42.7075 31.79 42.1465 31.79V32.04ZM43.7185 31.632L43.8493 31.845C44.3432 31.5418 44.7332 31.1295 45.0176 30.6125L44.7985 30.492L44.5795 30.3715C44.3358 30.8145 44.0059 31.1622 43.5877 31.419L43.7185 31.632ZM44.7985 30.492L45.0184 30.611C45.3045 30.0821 45.4445 29.4843 45.4445 28.824H45.1945H44.9445C44.9445 29.4117 44.8205 29.9259 44.5786 30.373L44.7985 30.492ZM45.1945 28.824H45.4445C45.4445 28.3324 45.3639 27.8767 45.199 27.46L44.9665 27.552L44.7341 27.644C44.8731 27.9953 44.9445 28.3876 44.9445 28.824H45.1945ZM44.9665 27.552L45.1996 27.4616C45.0367 27.0413 44.8078 26.6733 44.5123 26.3603L44.3305 26.532L44.1488 26.7037C44.3972 26.9667 44.5924 27.2787 44.7334 27.6424L44.9665 27.552ZM44.3305 26.532L44.5123 26.3603C44.2159 26.0465 43.8664 25.8063 43.466 25.6409L43.3705 25.872L43.2751 26.1031C43.6106 26.2417 43.9012 26.4415 44.1488 26.7037L44.3305 26.532ZM43.3705 25.872L43.4702 25.6427C43.0673 25.4675 42.6248 25.382 42.1465 25.382V25.632V25.882C42.5642 25.882 42.9378 25.9565 43.2709 26.1013L43.3705 25.872ZM42.1465 25.632V25.382C41.5148 25.382 40.9455 25.5276 40.4465 25.8253L40.5745 26.04L40.7026 26.2547C41.1155 26.0084 41.5943 25.882 42.1465 25.882V25.632ZM40.5745 26.04L40.4448 25.8263C39.9576 26.1221 39.5716 26.531 39.2875 27.0475L39.5065 27.168L39.7256 27.2885C39.9695 26.845 40.2954 26.5019 40.7043 26.2537L40.5745 26.04ZM39.5065 27.168L39.2859 27.0504C39.008 27.5716 38.8725 28.165 38.8725 28.824H39.1225H39.3725C39.3725 28.235 39.4931 27.7244 39.7271 27.2856L39.5065 27.168ZM39.1225 28.824H38.8725C38.8725 29.3142 38.9487 29.7751 39.1033 30.2047L39.3385 30.12L39.5738 30.0353C39.4404 29.6649 39.3725 29.2618 39.3725 28.824H39.1225ZM39.3385 30.12L39.1054 30.2104C39.2678 30.6291 39.4917 30.9963 39.7782 31.3089L39.9625 31.14L40.1468 30.9711C39.9054 30.7077 39.7132 30.3949 39.5716 30.0296L39.3385 30.12ZM39.9625 31.14L39.7832 31.3142C40.0786 31.6182 40.4258 31.8566 40.8228 32.0293L40.9225 31.8L41.0222 31.5707C40.6832 31.4234 40.3905 31.2218 40.1419 30.9658L39.9625 31.14ZM40.9225 31.8L40.8246 32.03C41.2339 32.2042 41.6755 32.29 42.1465 32.29V32.04V31.79C41.7376 31.79 41.3631 31.7158 41.0204 31.57L40.9225 31.8ZM47.7139 33H47.4639V33.25H47.7139V33ZM47.7139 24.432V24.182H47.4639V24.432H47.7139ZM48.7939 24.432H49.0439V24.182H48.7939V24.432ZM48.7939 33V33.25H49.0439V33H48.7939ZM47.7139 33H47.9639V24.432H47.7139H47.4639V33H47.7139ZM47.7139 24.432V24.682H48.7939V24.432V24.182H47.7139V24.432ZM48.7939 24.432H48.5439V33H48.7939H49.0439V24.432H48.7939ZM48.7939 33V32.75H47.7139V33V33.25H48.7939V33ZM50.386 33H50.136V33.25H50.386V33ZM50.386 27.3V27.05H50.136V27.3H50.386ZM51.466 27.3H51.716V27.05H51.466V27.3ZM51.466 33V33.25H51.716V33H51.466ZM50.434 25.968L50.2519 26.1394L50.2573 26.1448L50.434 25.968ZM50.434 24.984L50.6109 25.1609L50.6161 25.1553L50.434 24.984ZM51.418 24.984L51.2359 25.1554L51.2413 25.1608L51.418 24.984ZM51.418 25.968L51.5949 26.1449L51.6001 26.1393L51.418 25.968ZM50.386 33H50.636V27.3H50.386H50.136V33H50.386ZM50.386 27.3V27.55H51.466V27.3V27.05H50.386V27.3ZM51.466 27.3H51.216V33H51.466H51.716V27.3H51.466ZM51.466 33V32.75H50.386V33V33.25H51.466V33ZM50.926 26.16V25.91C50.7847 25.91 50.6868 25.8672 50.6108 25.7912L50.434 25.968L50.2573 26.1448C50.4373 26.3248 50.6674 26.41 50.926 26.41V26.16ZM50.434 25.968L50.6161 25.7967C50.535 25.7105 50.492 25.6053 50.492 25.464H50.242H49.992C49.992 25.7227 50.0771 25.9535 50.252 26.1393L50.434 25.968ZM50.242 25.464H50.492C50.492 25.3338 50.5328 25.2388 50.6108 25.1608L50.434 24.984L50.2573 24.8072C50.0793 24.9852 49.992 25.2102 49.992 25.464H50.242ZM50.434 24.984L50.6161 25.1553C50.6932 25.0734 50.7895 25.03 50.926 25.03V24.78V24.53C50.6626 24.53 50.4308 24.6226 50.252 24.8127L50.434 24.984ZM50.926 24.78V25.03C51.0626 25.03 51.1588 25.0734 51.236 25.1553L51.418 24.984L51.6001 24.8127C51.4212 24.6226 51.1895 24.53 50.926 24.53V24.78ZM51.418 24.984L51.2413 25.1608C51.3193 25.2388 51.36 25.3338 51.36 25.464H51.61H51.86C51.86 25.2102 51.7728 24.9852 51.5948 24.8072L51.418 24.984ZM51.61 25.464H51.36C51.36 25.6053 51.3171 25.7105 51.236 25.7967L51.418 25.968L51.6001 26.1393C51.775 25.9535 51.86 25.7227 51.86 25.464H51.61ZM51.418 25.968L51.2413 25.7912C51.1653 25.8672 51.0674 25.91 50.926 25.91V26.16V26.41C51.1847 26.41 51.4148 26.3248 51.5948 26.1448L51.418 25.968ZM55.0136 33L54.7864 33.1043L54.8533 33.25H55.0136V33ZM52.3976 27.3V27.05H52.0078L52.1704 27.4043L52.3976 27.3ZM53.5976 27.3L53.8268 27.2L53.7613 27.05H53.5976V27.3ZM55.6976 32.112V32.362H56.0795L55.9268 32.012L55.6976 32.112ZM55.0016 32.112L54.7727 32.0115L54.6189 32.362H55.0016V32.112ZM57.1136 27.3V27.05H56.9503L56.8847 27.1995L57.1136 27.3ZM58.2656 27.3L58.4928 27.4043L58.6554 27.05H58.2656V27.3ZM55.6496 33V33.25H55.81L55.8768 33.1043L55.6496 33ZM55.0136 33L55.2408 32.8957L52.6248 27.1957L52.3976 27.3L52.1704 27.4043L54.7864 33.1043L55.0136 33ZM52.3976 27.3V27.55H53.5976V27.3V27.05H52.3976V27.3ZM53.5976 27.3L53.3685 27.4L55.4685 32.212L55.6976 32.112L55.9268 32.012L53.8268 27.2L53.5976 27.3ZM55.6976 32.112V31.862H55.0016V32.112V32.362H55.6976V32.112ZM55.0016 32.112L55.2305 32.2125L57.3425 27.4005L57.1136 27.3L56.8847 27.1995L54.7727 32.0115L55.0016 32.112ZM57.1136 27.3V27.55H58.2656V27.3V27.05H57.1136V27.3ZM58.2656 27.3L58.0384 27.1957L55.4224 32.8957L55.6496 33L55.8768 33.1043L58.4928 27.4043L58.2656 27.3ZM55.6496 33V32.75H55.0136V33V33.25H55.6496V33ZM60.0679 32.736L59.9426 32.9524L59.9455 32.954L60.0679 32.736ZM58.9879 31.668L59.2033 31.5411L59.2033 31.5411L58.9879 31.668ZM58.9759 28.632L58.7605 28.5051L58.7588 28.508L58.9759 28.632ZM60.0319 27.576L60.1576 27.7921L60.1588 27.7914L60.0319 27.576ZM62.9239 27.54L62.7952 27.7544L62.7971 27.7555L62.9239 27.54ZM63.8719 28.536L63.6508 28.6528L63.6526 28.656L63.8719 28.536ZM64.2079 30.24L64.4569 30.2626L64.457 30.2608L64.2079 30.24ZM64.1599 30.552V30.802H64.3648L64.405 30.601L64.1599 30.552ZM59.3479 30.552H59.0979V30.802H59.3479V30.552ZM59.3479 29.652V29.402H59.0979V29.652H59.3479ZM63.5839 29.652L63.7489 29.8398L64.2471 29.402H63.5839V29.652ZM63.1879 30H62.9379V30.5525L63.3529 30.1878L63.1879 30ZM62.9839 29.028L62.7603 29.1398L62.7616 29.1425L62.9839 29.028ZM62.4079 28.404L62.2772 28.6172L62.2823 28.6202L62.4079 28.404ZM60.5359 28.416L60.4118 28.1989L60.4118 28.1989L60.5359 28.416ZM59.8879 29.088L60.109 29.2047L60.109 29.2047L59.8879 29.088ZM59.8999 31.164L59.6786 31.2804L59.6799 31.2829L59.8999 31.164ZM60.5839 31.86L60.4604 32.0775L60.465 32.0799L60.5839 31.86ZM62.4799 31.932L62.3847 31.7008L62.3822 31.7019L62.4799 31.932ZM63.1759 31.428L63.3542 31.2527L63.1633 31.0586L62.9861 31.2653L63.1759 31.428ZM63.8719 32.136L64.0624 32.2979L64.2104 32.1237L64.0502 31.9607L63.8719 32.136ZM62.8639 32.868L62.7671 32.6375L62.7654 32.6382L62.8639 32.868ZM61.6039 33.12V32.87C61.0749 32.87 60.6057 32.7512 60.1903 32.518L60.0679 32.736L59.9455 32.954C60.442 33.2328 60.9968 33.37 61.6039 33.37V33.12ZM60.0679 32.736L60.1931 32.5196C59.7739 32.2769 59.4451 31.9515 59.2033 31.5411L58.9879 31.668L58.7725 31.7949C59.0586 32.2805 59.4499 32.6671 59.9426 32.9524L60.0679 32.736ZM58.9879 31.668L59.2033 31.5411C58.964 31.135 58.8419 30.6716 58.8419 30.144H58.5919H58.3419C58.3419 30.7524 58.4838 31.305 58.7725 31.7949L58.9879 31.668ZM58.5919 30.144H58.8419C58.8419 29.6237 58.9603 29.1631 59.1929 28.756L58.9759 28.632L58.7588 28.508C58.4794 28.9969 58.3419 29.5443 58.3419 30.144H58.5919ZM58.9759 28.632L59.1913 28.7589C59.434 28.347 59.7555 28.0261 60.1576 27.7921L60.0319 27.576L59.9062 27.3599C59.4283 27.6379 59.0458 28.021 58.7605 28.5051L58.9759 28.632ZM60.0319 27.576L60.1588 27.7914C60.566 27.5515 61.0217 27.43 61.5319 27.43V27.18V26.93C60.9381 26.93 60.3938 27.0725 59.905 27.3606L60.0319 27.576ZM61.5319 27.18V27.43C62.0207 27.43 62.439 27.5406 62.7953 27.7544L62.9239 27.54L63.0525 27.3256C62.6087 27.0594 62.0991 26.93 61.5319 26.93V27.18ZM62.9239 27.54L62.7971 27.7555C63.1646 27.9716 63.4482 28.2692 63.6508 28.6528L63.8719 28.536L64.0929 28.4192C63.8476 27.9548 63.4992 27.5884 63.0506 27.3245L62.9239 27.54ZM63.8719 28.536L63.6526 28.656C63.8623 29.0393 63.9699 29.4773 63.9699 29.976H64.2199H64.4699C64.4699 29.4027 64.3454 28.8807 64.0912 28.416L63.8719 28.536ZM64.2199 29.976H63.9699C63.9699 30.0478 63.9663 30.1288 63.9587 30.2192L64.2079 30.24L64.457 30.2608C64.4655 30.1592 64.4699 30.0642 64.4699 29.976H64.2199ZM64.2079 30.24L63.9589 30.2174C63.9519 30.2939 63.9376 30.3886 63.9147 30.503L64.1599 30.552L64.405 30.601C64.4302 30.4754 64.4478 30.3621 64.4568 30.2626L64.2079 30.24ZM64.1599 30.552V30.302H59.3479V30.552V30.802H64.1599V30.552ZM59.3479 30.552H59.5979V29.652H59.3479H59.0979V30.552H59.3479ZM59.3479 29.652V29.902H63.5839V29.652V29.402H59.3479V29.652ZM63.5839 29.652L63.4188 29.4642L63.0228 29.8122L63.1879 30L63.3529 30.1878L63.7489 29.8398L63.5839 29.652ZM63.1879 30H63.4379C63.4379 29.5875 63.3649 29.2218 63.2061 28.9135L62.9839 29.028L62.7616 29.1425C62.8748 29.3622 62.9379 29.6445 62.9379 30H63.1879ZM62.9839 29.028L63.2075 28.9162C63.0511 28.6033 62.8262 28.3578 62.5334 28.1878L62.4079 28.404L62.2823 28.6202C62.4856 28.7382 62.6447 28.9087 62.7603 29.1398L62.9839 29.028ZM62.4079 28.404L62.5385 28.1908C62.2437 28.0101 61.8963 27.926 61.5079 27.926V28.176V28.426C61.8235 28.426 62.0761 28.4939 62.2772 28.6172L62.4079 28.404ZM61.5079 28.176V27.926C61.1026 27.926 60.7347 28.0145 60.4118 28.1989L60.5359 28.416L60.6599 28.6331C60.8971 28.4975 61.1771 28.426 61.5079 28.426V28.176ZM60.5359 28.416L60.4118 28.1989C60.0902 28.3827 59.8407 28.6418 59.6668 28.9713L59.8879 29.088L60.109 29.2047C60.239 28.9582 60.4216 28.7693 60.6599 28.6331L60.5359 28.416ZM59.8879 29.088L59.6668 28.9713C59.4923 29.3019 59.4099 29.6836 59.4099 30.108H59.6599H59.9099C59.9099 29.7484 59.9795 29.4501 60.109 29.2047L59.8879 29.088ZM59.6599 30.108H59.4099C59.4099 30.5419 59.4969 30.935 59.6786 31.2804L59.8999 31.164L60.1211 31.0476C59.9829 30.7849 59.9099 30.4741 59.9099 30.108H59.6599ZM59.8999 31.164L59.6799 31.2829C59.8625 31.6206 60.1242 31.8866 60.4605 32.0774L60.5839 31.86L60.7073 31.6426C60.4516 31.4974 60.2572 31.2994 60.1198 31.0451L59.8999 31.164ZM60.5839 31.86L60.465 32.0799C60.8024 32.2623 61.1843 32.35 61.6039 32.35V32.1V31.85C61.2555 31.85 60.9574 31.7777 60.7028 31.6401L60.5839 31.86ZM61.6039 32.1V32.35C61.9535 32.35 62.2792 32.2887 62.5775 32.1621L62.4799 31.932L62.3822 31.7019C62.1525 31.7993 61.8942 31.85 61.6039 31.85V32.1ZM62.4799 31.932L62.5751 32.1632C62.8837 32.0361 63.1481 31.8446 63.3657 31.5907L63.1759 31.428L62.9861 31.2653C62.8197 31.4594 62.6201 31.6039 62.3847 31.7008L62.4799 31.932ZM63.1759 31.428L62.9976 31.6033L63.6936 32.3113L63.8719 32.136L64.0502 31.9607L63.3542 31.2527L63.1759 31.428ZM63.8719 32.136L63.6814 31.9741C63.4357 32.2632 63.1321 32.4842 62.7671 32.6375L62.8639 32.868L62.9607 33.0985C63.3956 32.9158 63.7641 32.6488 64.0624 32.2979L63.8719 32.136ZM62.8639 32.868L62.7654 32.6382C62.4061 32.7922 62.0198 32.87 61.6039 32.87V33.12V33.37C62.084 33.37 62.5377 33.2798 62.9624 33.0978L62.8639 32.868Z" fill="#007A3D"/>
<path d="M66.0264 30.456V29.436H69.9744V30.456H66.0264Z" fill="#A67C52" fill-opacity="0.1"/>
<path d="M66.0264 30.456H65.7764V30.706H66.0264V30.456ZM66.0264 29.436V29.186H65.7764V29.436H66.0264ZM69.9744 29.436H70.2244V29.186H69.9744V29.436ZM69.9744 30.456V30.706H70.2244V30.456H69.9744ZM66.0264 30.456H66.2764V29.436H66.0264H65.7764V30.456H66.0264ZM66.0264 29.436V29.686H69.9744V29.436V29.186H66.0264V29.436ZM69.9744 29.436H69.7244V30.456H69.9744H70.2244V29.436H69.9744ZM69.9744 30.456V30.206H66.0264V30.456V30.706H69.9744V30.456Z" fill="#A67C52"/>
<path d="M72.7166 29.376V28.428H74.9726C75.4606 28.428 75.8366 28.304 76.1006 28.056C76.3646 27.808 76.4966 27.472 76.4966 27.048C76.4966 26.648 76.3646 26.316 76.1006 26.052C75.8446 25.788 75.4726 25.656 74.9846 25.656H72.7166V24.672H75.0206C75.5486 24.672 76.0086 24.776 76.4006 24.984C76.7926 25.184 77.0926 25.46 77.3006 25.812C77.5166 26.164 77.6246 26.568 77.6246 27.024C77.6246 27.496 77.5166 27.908 77.3006 28.26C77.0926 28.612 76.7926 28.888 76.4006 29.088C76.0086 29.28 75.5486 29.376 75.0206 29.376H72.7166ZM71.9606 33V24.672H73.0886V33H71.9606ZM76.7606 33L73.7366 29.268L74.8046 28.896L78.1886 33H76.7606ZM81.5796 33.12C81.0196 33.12 80.5156 32.988 80.0676 32.724C79.6196 32.46 79.2636 32.104 78.9996 31.656C78.7356 31.2 78.6036 30.692 78.6036 30.132C78.6036 29.58 78.7356 29.084 78.9996 28.644C79.2636 28.196 79.6196 27.84 80.0676 27.576C80.5156 27.312 81.0196 27.18 81.5796 27.18C82.1316 27.18 82.6316 27.312 83.0796 27.576C83.5356 27.832 83.8956 28.184 84.1596 28.632C84.4236 29.08 84.5556 29.58 84.5556 30.132C84.5556 30.692 84.4236 31.2 84.1596 31.656C83.8956 32.104 83.5356 32.46 83.0796 32.724C82.6316 32.988 82.1316 33.12 81.5796 33.12ZM81.5796 32.076C81.9396 32.076 82.2596 31.992 82.5396 31.824C82.8196 31.656 83.0396 31.428 83.1996 31.14C83.3596 30.844 83.4396 30.508 83.4396 30.132C83.4396 29.764 83.3556 29.436 83.1876 29.148C83.0276 28.86 82.8076 28.636 82.5276 28.476C82.2556 28.308 81.9396 28.224 81.5796 28.224C81.2196 28.224 80.8996 28.308 80.6196 28.476C80.3396 28.636 80.1196 28.86 79.9596 29.148C79.7996 29.436 79.7196 29.764 79.7196 30.132C79.7196 30.508 79.7996 30.844 79.9596 31.14C80.1196 31.428 80.3396 31.656 80.6196 31.824C80.8996 31.992 81.2196 32.076 81.5796 32.076ZM88.3765 33.12C87.8165 33.12 87.3125 32.988 86.8645 32.724C86.4165 32.46 86.0605 32.104 85.7965 31.656C85.5325 31.2 85.4005 30.692 85.4005 30.132C85.4005 29.58 85.5325 29.084 85.7965 28.644C86.0605 28.196 86.4165 27.84 86.8645 27.576C87.3125 27.312 87.8165 27.18 88.3765 27.18C88.9285 27.18 89.4285 27.312 89.8765 27.576C90.3325 27.832 90.6925 28.184 90.9565 28.632C91.2205 29.08 91.3525 29.58 91.3525 30.132C91.3525 30.692 91.2205 31.2 90.9565 31.656C90.6925 32.104 90.3325 32.46 89.8765 32.724C89.4285 32.988 88.9285 33.12 88.3765 33.12ZM88.3765 32.076C88.7365 32.076 89.0565 31.992 89.3365 31.824C89.6165 31.656 89.8365 31.428 89.9965 31.14C90.1565 30.844 90.2365 30.508 90.2365 30.132C90.2365 29.764 90.1525 29.436 89.9845 29.148C89.8245 28.86 89.6045 28.636 89.3245 28.476C89.0525 28.308 88.7365 28.224 88.3765 28.224C88.0165 28.224 87.6965 28.308 87.4165 28.476C87.1365 28.636 86.9165 28.86 86.7565 29.148C86.5965 29.436 86.5165 29.764 86.5165 30.132C86.5165 30.508 86.5965 30.844 86.7565 31.14C86.9165 31.428 87.1365 31.656 87.4165 31.824C87.6965 31.992 88.0165 32.076 88.3765 32.076ZM93.2696 33V24.912H94.3496V33H93.2696ZM91.8656 28.284V27.3H95.7536V28.284H91.8656ZM98.5063 33.12C98.1863 33.12 97.8823 33.08 97.5943 33C97.3143 32.912 97.0543 32.792 96.8143 32.64C96.5743 32.48 96.3663 32.292 96.1903 32.076L96.8863 31.38C97.0943 31.636 97.3343 31.828 97.6063 31.956C97.8783 32.076 98.1823 32.136 98.5183 32.136C98.8543 32.136 99.1143 32.08 99.2983 31.968C99.4823 31.848 99.5743 31.684 99.5743 31.476C99.5743 31.268 99.4983 31.108 99.3463 30.996C99.2023 30.876 99.0143 30.78 98.7823 30.708C98.5503 30.628 98.3023 30.552 98.0383 30.48C97.7823 30.4 97.5383 30.3 97.3063 30.18C97.0743 30.06 96.8823 29.896 96.7303 29.688C96.5863 29.48 96.5143 29.204 96.5143 28.86C96.5143 28.516 96.5983 28.22 96.7663 27.972C96.9343 27.716 97.1663 27.52 97.4623 27.384C97.7663 27.248 98.1303 27.18 98.5543 27.18C99.0023 27.18 99.3983 27.26 99.7423 27.42C100.094 27.572 100.382 27.804 100.606 28.116L99.9103 28.812C99.7503 28.604 99.5503 28.444 99.3103 28.332C99.0783 28.22 98.8143 28.164 98.5183 28.164C98.2063 28.164 97.9663 28.22 97.7983 28.332C97.6383 28.436 97.5583 28.584 97.5583 28.776C97.5583 28.968 97.6303 29.116 97.7743 29.22C97.9183 29.324 98.1063 29.412 98.3383 29.484C98.5783 29.556 98.8263 29.632 99.0823 29.712C99.3383 29.784 99.5823 29.884 99.8143 30.012C100.046 30.14 100.234 30.312 100.378 30.528C100.53 30.744 100.606 31.028 100.606 31.38C100.606 31.916 100.414 32.34 100.03 32.652C99.6543 32.964 99.1463 33.12 98.5063 33.12Z" fill="#007A3D" fill-opacity="0.1"/>
<path d="M72.7166 29.376H72.4666V29.626H72.7166V29.376ZM72.7166 28.428V28.178H72.4666V28.428H72.7166ZM76.1006 28.056L75.9294 27.8738L75.9294 27.8738L76.1006 28.056ZM76.1006 26.052L75.9211 26.2261L75.9238 26.2288L76.1006 26.052ZM72.7166 25.656H72.4666V25.906H72.7166V25.656ZM72.7166 24.672V24.422H72.4666V24.672H72.7166ZM76.4006 24.984L76.2834 25.2049L76.2869 25.2067L76.4006 24.984ZM77.3006 25.812L77.0853 25.9392L77.0875 25.9428L77.3006 25.812ZM77.3006 28.26L77.0875 28.1292L77.0853 28.1328L77.3006 28.26ZM76.4006 29.088L76.5105 29.3125L76.5142 29.3107L76.4006 29.088ZM71.9606 33H71.7106V33.25H71.9606V33ZM71.9606 24.672V24.422H71.7106V24.672H71.9606ZM73.0886 24.672H73.3386V24.422H73.0886V24.672ZM73.0886 33V33.25H73.3386V33H73.0886ZM76.7606 33L76.5663 33.1574L76.6414 33.25H76.7606V33ZM73.7366 29.268L73.6543 29.0319L73.3183 29.1489L73.5423 29.4254L73.7366 29.268ZM74.8046 28.896L74.9974 28.737L74.8867 28.6027L74.7223 28.6599L74.8046 28.896ZM78.1886 33V33.25H78.7187L78.3814 32.841L78.1886 33ZM72.7166 29.376H72.9666V28.428H72.7166H72.4666V29.376H72.7166ZM72.7166 28.428V28.678H74.9726V28.428V28.178H72.7166V28.428ZM74.9726 28.428V28.678C75.5016 28.678 75.9472 28.5431 76.2717 28.2382L76.1006 28.056L75.9294 27.8738C75.7259 28.0649 75.4195 28.178 74.9726 28.178V28.428ZM76.1006 28.056L76.2717 28.2382C76.5947 27.9348 76.7466 27.5282 76.7466 27.048H76.4966H76.2466C76.2466 27.4158 76.1345 27.6812 75.9294 27.8738L76.1006 28.056ZM76.4966 27.048H76.7466C76.7466 26.5869 76.5918 26.1897 76.2773 25.8752L76.1006 26.052L75.9238 26.2288C76.1373 26.4423 76.2466 26.7091 76.2466 27.048H76.4966ZM76.1006 26.052L76.28 25.878C75.963 25.5511 75.5172 25.406 74.9846 25.406V25.656V25.906C75.4279 25.906 75.7261 26.0249 75.9211 26.226L76.1006 26.052ZM74.9846 25.656V25.406H72.7166V25.656V25.906H74.9846V25.656ZM72.7166 25.656H72.9666V24.672H72.7166H72.4666V25.656H72.7166ZM72.7166 24.672V24.922H75.0206V24.672V24.422H72.7166V24.672ZM75.0206 24.672V24.922C75.5154 24.922 75.9337 25.0193 76.2834 25.2048L76.4006 24.984L76.5177 24.7632C76.0834 24.5327 75.5817 24.422 75.0206 24.422V24.672ZM76.4006 24.984L76.2869 25.2067C76.6401 25.3869 76.9033 25.6311 77.0853 25.9392L77.3006 25.812L77.5158 25.6848C77.2818 25.2889 76.9451 24.9811 76.5142 24.7613L76.4006 24.984ZM77.3006 25.812L77.0875 25.9428C77.2769 26.2514 77.3746 26.6092 77.3746 27.024H77.6246H77.8746C77.8746 26.5268 77.7563 26.0766 77.5136 25.6812L77.3006 25.812ZM77.6246 27.024H77.3746C77.3746 27.4566 77.276 27.822 77.0875 28.1292L77.3006 28.26L77.5136 28.3908C77.7571 27.994 77.8746 27.5354 77.8746 27.024H77.6246ZM77.3006 28.26L77.0853 28.1328C76.9033 28.4409 76.6401 28.6851 76.2869 28.8653L76.4006 29.088L76.5142 29.3107C76.9451 29.0909 77.2818 28.7831 77.5158 28.3872L77.3006 28.26ZM76.4006 29.088L76.2906 28.8635C75.9393 29.0356 75.5183 29.126 75.0206 29.126V29.376V29.626C75.5788 29.626 76.0779 29.5244 76.5105 29.3125L76.4006 29.088ZM75.0206 29.376V29.126H72.7166V29.376V29.626H75.0206V29.376ZM71.9606 33H72.2106V24.672H71.9606H71.7106V33H71.9606ZM71.9606 24.672V24.922H73.0886V24.672V24.422H71.9606V24.672ZM73.0886 24.672H72.8386V33H73.0886H73.3386V24.672H73.0886ZM73.0886 33V32.75H71.9606V33V33.25H73.0886V33ZM76.7606 33L76.9548 32.8426L73.9308 29.1106L73.7366 29.268L73.5423 29.4254L76.5663 33.1574L76.7606 33ZM73.7366 29.268L73.8188 29.5041L74.8868 29.1321L74.8046 28.896L74.7223 28.6599L73.6543 29.0319L73.7366 29.268ZM74.8046 28.896L74.6117 29.055L77.9957 33.159L78.1886 33L78.3814 32.841L74.9974 28.737L74.8046 28.896ZM78.1886 33V32.75H76.7606V33V33.25H78.1886V33ZM80.0676 32.724L79.9407 32.9394L79.9407 32.9394L80.0676 32.724ZM78.9996 31.656L78.7832 31.7813L78.7842 31.7829L78.9996 31.656ZM78.9996 28.644L79.214 28.7726L79.215 28.7709L78.9996 28.644ZM80.0676 27.576L79.9407 27.3606L79.9407 27.3606L80.0676 27.576ZM83.0796 27.576L82.9526 27.7914L82.9572 27.794L83.0796 27.576ZM84.1596 31.656L84.375 31.7829L84.376 31.7813L84.1596 31.656ZM83.0796 32.724L82.9543 32.5076L82.9527 32.5086L83.0796 32.724ZM82.5396 31.824L82.411 31.6096L82.411 31.6096L82.5396 31.824ZM83.1996 31.14L83.4181 31.2614L83.4195 31.2589L83.1996 31.14ZM83.1876 29.148L82.969 29.2694L82.9716 29.274L83.1876 29.148ZM82.5276 28.476L82.3961 28.6888L82.4036 28.6931L82.5276 28.476ZM80.6196 28.476L80.7437 28.6931L80.7482 28.6904L80.6196 28.476ZM79.9596 29.148L80.1781 29.2694L80.1781 29.2694L79.9596 29.148ZM79.9596 31.14L79.7397 31.2589L79.7411 31.2614L79.9596 31.14ZM81.5796 33.12V32.87C81.0607 32.87 80.6011 32.7482 80.1945 32.5086L80.0676 32.724L79.9407 32.9394C80.4301 33.2278 80.9785 33.37 81.5796 33.37V33.12ZM80.0676 32.724L80.1945 32.5086C79.783 32.2661 79.4575 31.9406 79.215 31.5291L78.9996 31.656L78.7842 31.7829C79.0697 32.2674 79.4562 32.6539 79.9407 32.9394L80.0676 32.724ZM78.9996 31.656L79.216 31.5307C78.9754 31.1152 78.8536 30.6509 78.8536 30.132H78.6036H78.3536C78.3536 30.7331 78.4958 31.2848 78.7832 31.7813L78.9996 31.656ZM78.6036 30.132H78.8536C78.8536 29.6218 78.975 29.1708 79.214 28.7726L78.9996 28.644L78.7852 28.5154C78.4961 28.9972 78.3536 29.5382 78.3536 30.132H78.6036ZM78.9996 28.644L79.215 28.7709C79.4575 28.3594 79.783 28.0339 80.1945 27.7914L80.0676 27.576L79.9407 27.3606C79.4562 27.6461 79.0697 28.0326 78.7842 28.5171L78.9996 28.644ZM80.0676 27.576L80.1945 27.7914C80.6011 27.5518 81.0607 27.43 81.5796 27.43V27.18V26.93C80.9785 26.93 80.4301 27.0722 79.9407 27.3606L80.0676 27.576ZM81.5796 27.18V27.43C82.0898 27.43 82.5455 27.5515 82.9527 27.7914L83.0796 27.576L83.2065 27.3606C82.7177 27.0725 82.1734 26.93 81.5796 26.93V27.18ZM83.0796 27.576L82.9572 27.794C83.3749 28.0285 83.7028 28.3492 83.9442 28.7589L84.1596 28.632L84.375 28.5051C84.0884 28.0188 83.6962 27.6355 83.202 27.358L83.0796 27.576ZM84.1596 28.632L83.9442 28.7589C84.1841 29.1661 84.3056 29.6218 84.3056 30.132H84.5556H84.8056C84.8056 29.5382 84.663 28.9939 84.375 28.5051L84.1596 28.632ZM84.5556 30.132H84.3056C84.3056 30.6509 84.1838 31.1152 83.9432 31.5307L84.1596 31.656L84.376 31.7813C84.6634 31.2848 84.8056 30.7331 84.8056 30.132H84.5556ZM84.1596 31.656L83.9442 31.5291C83.7024 31.9395 83.3736 32.2649 82.9543 32.5076L83.0796 32.724L83.2049 32.9404C83.6976 32.6551 84.0888 32.2685 84.375 31.7829L84.1596 31.656ZM83.0796 32.724L82.9527 32.5086C82.5455 32.7485 82.0898 32.87 81.5796 32.87V33.12V33.37C82.1734 33.37 82.7177 33.2275 83.2065 32.9394L83.0796 32.724ZM81.5796 32.076V32.326C81.9801 32.326 82.3455 32.232 82.6682 32.0384L82.5396 31.824L82.411 31.6096C82.1737 31.752 81.8991 31.826 81.5796 31.826V32.076ZM82.5396 31.824L82.6682 32.0384C82.9862 31.8476 83.237 31.5874 83.4181 31.2614L83.1996 31.14L82.9811 31.0186C82.8422 31.2686 82.653 31.4644 82.411 31.6096L82.5396 31.824ZM83.1996 31.14L83.4195 31.2589C83.6015 30.9222 83.6896 30.5445 83.6896 30.132H83.4396H83.1896C83.1896 30.4714 83.1177 30.7658 82.9797 31.0211L83.1996 31.14ZM83.4396 30.132H83.6896C83.6896 29.7245 83.5961 29.3521 83.4035 29.022L83.1876 29.148L82.9716 29.274C83.1151 29.5199 83.1896 29.8035 83.1896 30.132H83.4396ZM83.1876 29.148L83.4061 29.0266C83.2245 28.6996 82.9722 28.4421 82.6516 28.2589L82.5276 28.476L82.4036 28.6931C82.643 28.8299 82.8307 29.0204 82.9691 29.2694L83.1876 29.148ZM82.5276 28.476L82.659 28.2633C82.3427 28.0679 81.98 27.974 81.5796 27.974V28.224V28.474C81.8992 28.474 82.1685 28.5481 82.3962 28.6887L82.5276 28.476ZM81.5796 28.224V27.974C81.1791 27.974 80.8137 28.068 80.491 28.2616L80.6196 28.476L80.7482 28.6904C80.9855 28.548 81.2601 28.474 81.5796 28.474V28.224ZM80.6196 28.476L80.4956 28.2589C80.175 28.4421 79.9227 28.6996 79.7411 29.0266L79.9596 29.148L80.1781 29.2694C80.3165 29.0204 80.5042 28.8299 80.7436 28.6931L80.6196 28.476ZM79.9596 29.148L79.7411 29.0266C79.5581 29.3559 79.4696 29.7266 79.4696 30.132H79.7196H79.9696C79.9696 29.8014 80.0411 29.5161 80.1781 29.2694L79.9596 29.148ZM79.7196 30.132H79.4696C79.4696 30.5445 79.5577 30.9222 79.7397 31.2589L79.9596 31.14L80.1795 31.0211C80.0415 30.7658 79.9696 30.4714 79.9696 30.132H79.7196ZM79.9596 31.14L79.7411 31.2614C79.9222 31.5874 80.173 31.8476 80.491 32.0384L80.6196 31.824L80.7482 31.6096C80.5062 31.4644 80.317 31.2686 80.1781 31.0186L79.9596 31.14ZM80.6196 31.824L80.491 32.0384C80.8137 32.232 81.1791 32.326 81.5796 32.326V32.076V31.826C81.2601 31.826 80.9855 31.752 80.7482 31.6096L80.6196 31.824ZM86.8645 32.724L86.7375 32.9394L86.7375 32.9394L86.8645 32.724ZM85.7965 31.656L85.5801 31.7813L85.5811 31.7829L85.7965 31.656ZM85.7965 28.644L86.0108 28.7726L86.0119 28.7709L85.7965 28.644ZM86.8645 27.576L86.7375 27.3606L86.7375 27.3606L86.8645 27.576ZM89.8765 27.576L89.7495 27.7914L89.7541 27.794L89.8765 27.576ZM90.9565 31.656L91.1719 31.7829L91.1728 31.7813L90.9565 31.656ZM89.8765 32.724L89.7512 32.5076L89.7495 32.5086L89.8765 32.724ZM89.3365 31.824L89.2078 31.6096L89.2078 31.6096L89.3365 31.824ZM89.9965 31.14L90.215 31.2614L90.2164 31.2589L89.9965 31.14ZM89.9845 29.148L89.7659 29.2694L89.7685 29.274L89.9845 29.148ZM89.3245 28.476L89.193 28.6888L89.2004 28.6931L89.3245 28.476ZM87.4165 28.476L87.5405 28.6931L87.5451 28.6904L87.4165 28.476ZM86.7565 29.148L86.975 29.2694L86.975 29.2694L86.7565 29.148ZM86.7565 31.14L86.5365 31.2589L86.5379 31.2614L86.7565 31.14ZM88.3765 33.12V32.87C87.8576 32.87 87.398 32.7482 86.9914 32.5086L86.8645 32.724L86.7375 32.9394C87.227 33.2278 87.7754 33.37 88.3765 33.37V33.12ZM86.8645 32.724L86.9914 32.5086C86.5799 32.2661 86.2543 31.9406 86.0119 31.5291L85.7965 31.656L85.5811 31.7829C85.8666 32.2674 86.253 32.6539 86.7375 32.9394L86.8645 32.724ZM85.7965 31.656L86.0128 31.5307C85.7723 31.1152 85.6505 30.6509 85.6505 30.132H85.4005H85.1505C85.1505 30.7331 85.2927 31.2848 85.5801 31.7813L85.7965 31.656ZM85.4005 30.132H85.6505C85.6505 29.6218 85.7719 29.1708 86.0108 28.7726L85.7965 28.644L85.5821 28.5154C85.293 28.9972 85.1505 29.5382 85.1505 30.132H85.4005ZM85.7965 28.644L86.0119 28.7709C86.2543 28.3594 86.5799 28.0339 86.9914 27.7914L86.8645 27.576L86.7375 27.3606C86.253 27.6461 85.8666 28.0326 85.5811 28.5171L85.7965 28.644ZM86.8645 27.576L86.9914 27.7914C87.398 27.5518 87.8576 27.43 88.3765 27.43V27.18V26.93C87.7754 26.93 87.227 27.0722 86.7375 27.3606L86.8645 27.576ZM88.3765 27.18V27.43C88.8867 27.43 89.3424 27.5515 89.7495 27.7914L89.8765 27.576L90.0034 27.3606C89.5145 27.0725 88.9703 26.93 88.3765 26.93V27.18ZM89.8765 27.576L89.7541 27.794C90.1718 28.0285 90.4996 28.3492 90.7411 28.7589L90.9565 28.632L91.1719 28.5051C90.8853 28.0188 90.4931 27.6355 89.9989 27.358L89.8765 27.576ZM90.9565 28.632L90.7411 28.7589C90.981 29.1661 91.1025 29.6218 91.1025 30.132H91.3525H91.6025C91.6025 29.5382 91.4599 28.9939 91.1719 28.5051L90.9565 28.632ZM91.3525 30.132H91.1025C91.1025 30.6509 90.9807 31.1152 90.7401 31.5307L90.9565 31.656L91.1728 31.7813C91.4603 31.2848 91.6025 30.7331 91.6025 30.132H91.3525ZM90.9565 31.656L90.7411 31.5291C90.4992 31.9395 90.1705 32.2649 89.7512 32.5076L89.8765 32.724L90.0017 32.9404C90.4944 32.6551 90.8857 32.2685 91.1719 31.7829L90.9565 31.656ZM89.8765 32.724L89.7495 32.5086C89.3424 32.7485 88.8867 32.87 88.3765 32.87V33.12V33.37C88.9703 33.37 89.5145 33.2275 90.0034 32.9394L89.8765 32.724ZM88.3765 32.076V32.326C88.777 32.326 89.1423 32.232 89.4651 32.0384L89.3365 31.824L89.2078 31.6096C88.9706 31.752 88.6959 31.826 88.3765 31.826V32.076ZM89.3365 31.824L89.4651 32.0384C89.7831 31.8476 90.0339 31.5874 90.215 31.2614L89.9965 31.14L89.7779 31.0186C89.639 31.2686 89.4499 31.4644 89.2078 31.6096L89.3365 31.824ZM89.9965 31.14L90.2164 31.2589C90.3984 30.9222 90.4865 30.5445 90.4865 30.132H90.2365H89.9865C89.9865 30.4714 89.9146 30.7658 89.7765 31.0211L89.9965 31.14ZM90.2365 30.132H90.4865C90.4865 29.7245 90.393 29.3521 90.2004 29.022L89.9845 29.148L89.7685 29.274C89.912 29.5199 89.9865 29.8035 89.9865 30.132H90.2365ZM89.9845 29.148L90.203 29.0266C90.0213 28.6996 89.769 28.4421 89.4485 28.2589L89.3245 28.476L89.2004 28.6931C89.4399 28.8299 89.6276 29.0204 89.7659 29.2694L89.9845 29.148ZM89.3245 28.476L89.4558 28.2633C89.1395 28.0679 88.7769 27.974 88.3765 27.974V28.224V28.474C88.6961 28.474 88.9654 28.5481 89.1931 28.6887L89.3245 28.476ZM88.3765 28.224V27.974C87.9759 27.974 87.6106 28.068 87.2878 28.2616L87.4165 28.476L87.5451 28.6904C87.7823 28.548 88.057 28.474 88.3765 28.474V28.224ZM87.4165 28.476L87.2924 28.2589C86.9719 28.4421 86.7196 28.6996 86.5379 29.0266L86.7565 29.148L86.975 29.2694C87.1133 29.0204 87.301 28.8299 87.5405 28.6931L87.4165 28.476ZM86.7565 29.148L86.5379 29.0266C86.355 29.3559 86.2665 29.7266 86.2665 30.132H86.5165H86.7665C86.7665 29.8014 86.838 29.5161 86.975 29.2694L86.7565 29.148ZM86.5165 30.132H86.2665C86.2665 30.5445 86.3546 30.9222 86.5365 31.2589L86.7565 31.14L86.9764 31.0211C86.8384 30.7658 86.7665 30.4714 86.7665 30.132H86.5165ZM86.7565 31.14L86.5379 31.2614C86.719 31.5874 86.9699 31.8476 87.2878 32.0384L87.4165 31.824L87.5451 31.6096C87.3031 31.4644 87.1139 31.2686 86.975 31.0186L86.7565 31.14ZM87.4165 31.824L87.2878 32.0384C87.6106 32.232 87.9759 32.326 88.3765 32.326V32.076V31.826C88.057 31.826 87.7823 31.752 87.5451 31.6096L87.4165 31.824ZM93.2696 33H93.0196V33.25H93.2696V33ZM93.2696 24.912V24.662H93.0196V24.912H93.2696ZM94.3496 24.912H94.5996V24.662H94.3496V24.912ZM94.3496 33V33.25H94.5996V33H94.3496ZM91.8656 28.284H91.6156V28.534H91.8656V28.284ZM91.8656 27.3V27.05H91.6156V27.3H91.8656ZM95.7536 27.3H96.0036V27.05H95.7536V27.3ZM95.7536 28.284V28.534H96.0036V28.284H95.7536ZM93.2696 33H93.5196V24.912H93.2696H93.0196V33H93.2696ZM93.2696 24.912V25.162H94.3496V24.912V24.662H93.2696V24.912ZM94.3496 24.912H94.0996V33H94.3496H94.5996V24.912H94.3496ZM94.3496 33V32.75H93.2696V33V33.25H94.3496V33ZM91.8656 28.284H92.1156V27.3H91.8656H91.6156V28.284H91.8656ZM91.8656 27.3V27.55H95.7536V27.3V27.05H91.8656V27.3ZM95.7536 27.3H95.5036V28.284H95.7536H96.0036V27.3H95.7536ZM95.7536 28.284V28.034H91.8656V28.284V28.534H95.7536V28.284ZM97.5943 33L97.5193 33.2386L97.5274 33.2409L97.5943 33ZM96.8143 32.64L96.6756 32.8481L96.6806 32.8512L96.8143 32.64ZM96.1903 32.076L96.0136 31.8992L95.8539 32.0589L95.9965 32.2339L96.1903 32.076ZM96.8863 31.38L97.0804 31.2224L96.9056 31.0072L96.7096 31.2032L96.8863 31.38ZM97.6063 31.956L97.4999 32.1823L97.5054 32.1847L97.6063 31.956ZM99.2983 31.968L99.4284 32.1817L99.4349 32.1774L99.2983 31.968ZM99.3463 30.996L99.1863 31.1881L99.192 31.1928L99.198 31.1973L99.3463 30.996ZM98.7823 30.708L98.7008 30.9445L98.7082 30.9468L98.7823 30.708ZM98.0383 30.48L97.9637 30.7188L97.9726 30.7212L98.0383 30.48ZM97.3063 30.18L97.4212 29.9579L97.4212 29.9579L97.3063 30.18ZM96.7303 29.688L96.5247 29.8303L96.5285 29.8355L96.7303 29.688ZM96.7663 27.972L96.9733 28.1122L96.9754 28.1092L96.7663 27.972ZM97.4623 27.384L97.3602 27.1558L97.358 27.1568L97.4623 27.384ZM99.7423 27.42L99.6369 27.6468L99.6432 27.6495L99.7423 27.42ZM100.606 28.116L100.783 28.2928L100.933 28.1427L100.809 27.9702L100.606 28.116ZM99.9103 28.812L99.7122 28.9644L99.8858 29.1901L100.087 28.9888L99.9103 28.812ZM99.3103 28.332L99.2016 28.5572L99.2046 28.5585L99.3103 28.332ZM97.7983 28.332L97.9346 28.5416L97.937 28.54L97.7983 28.332ZM97.7743 29.22L97.9207 29.0173L97.9207 29.0173L97.7743 29.22ZM98.3383 29.484L98.2642 29.7228L98.2665 29.7235L98.3383 29.484ZM99.0823 29.712L99.0077 29.9507L99.0147 29.9527L99.0823 29.712ZM99.8143 30.012L99.6936 30.2309L99.6936 30.2309L99.8143 30.012ZM100.378 30.528L100.17 30.6667L100.174 30.6719L100.378 30.528ZM100.03 32.652L99.8727 32.458L99.8707 32.4596L100.03 32.652ZM98.5063 33.12V32.87C98.2074 32.87 97.926 32.8327 97.6613 32.7591L97.5943 33L97.5274 33.2409C97.8387 33.3273 98.1653 33.37 98.5063 33.37V33.12ZM97.5943 33L97.6693 32.7615C97.4093 32.6798 97.1692 32.5688 96.9481 32.4288L96.8143 32.64L96.6806 32.8512C96.9395 33.0152 97.2194 33.1442 97.5194 33.2385L97.5943 33ZM96.8143 32.64L96.953 32.432C96.7331 32.2853 96.5438 32.114 96.3842 31.9181L96.1903 32.076L95.9965 32.2339C96.1889 32.47 96.4156 32.6747 96.6757 32.848L96.8143 32.64ZM96.1903 32.076L96.3671 32.2528L97.0631 31.5568L96.8863 31.38L96.7096 31.2032L96.0136 31.8992L96.1903 32.076ZM96.8863 31.38L96.6923 31.5376C96.9217 31.8199 97.1907 32.0367 97.4999 32.1822L97.6063 31.956L97.7128 31.7298C97.478 31.6193 97.267 31.4521 97.0804 31.2224L96.8863 31.38ZM97.6063 31.956L97.5054 32.1847C97.8131 32.3205 98.1521 32.386 98.5183 32.386V32.136V31.886C98.2126 31.886 97.9436 31.8315 97.7073 31.7273L97.6063 31.956ZM98.5183 32.136V32.386C98.8767 32.386 99.189 32.3272 99.4283 32.1815L99.2983 31.968L99.1684 31.7545C99.0396 31.8328 98.832 31.886 98.5183 31.886V32.136ZM99.2983 31.968L99.4349 32.1774C99.6849 32.0144 99.8243 31.774 99.8243 31.476H99.5743H99.3243C99.3243 31.594 99.2798 31.6816 99.1618 31.7586L99.2983 31.968ZM99.5743 31.476H99.8243C99.8243 31.1979 99.7178 30.9591 99.4946 30.7947L99.3463 30.996L99.198 31.1973C99.2789 31.2569 99.3243 31.3381 99.3243 31.476H99.5743ZM99.3463 30.996L99.5064 30.8039C99.3308 30.6576 99.111 30.5482 98.8564 30.4692L98.7823 30.708L98.7082 30.9468C98.9177 31.0118 99.0739 31.0944 99.1863 31.1881L99.3463 30.996ZM98.7823 30.708L98.8638 30.4717C98.6261 30.3897 98.3728 30.3121 98.1041 30.2388L98.0383 30.48L97.9726 30.7212C98.2319 30.7919 98.4746 30.8663 98.7008 30.9443L98.7823 30.708ZM98.0383 30.48L98.1129 30.2414C97.8704 30.1656 97.6399 30.0711 97.4212 29.9579L97.3063 30.18L97.1915 30.4021C97.4368 30.5289 97.6943 30.6344 97.9638 30.7186L98.0383 30.48ZM97.3063 30.18L97.4212 29.9579C97.2231 29.8555 97.061 29.7168 96.9322 29.5405L96.7303 29.688L96.5285 29.8355C96.7037 30.0752 96.9256 30.2645 97.1915 30.4021L97.3063 30.18ZM96.7303 29.688L96.9359 29.5457C96.8296 29.3921 96.7643 29.171 96.7643 28.86H96.5143H96.2643C96.2643 29.237 96.3431 29.5679 96.5248 29.8303L96.7303 29.688ZM96.5143 28.86H96.7643C96.7643 28.5583 96.8374 28.3129 96.9733 28.1122L96.7663 27.972L96.5594 27.8318C96.3593 28.1271 96.2643 28.4737 96.2643 28.86H96.5143ZM96.7663 27.972L96.9754 28.1092C97.1159 27.8949 97.3105 27.7289 97.5667 27.6112L97.4623 27.384L97.358 27.1568C97.0222 27.3111 96.7527 27.5371 96.5573 27.8348L96.7663 27.972ZM97.4623 27.384L97.5644 27.6122C97.8288 27.4939 98.1563 27.43 98.5543 27.43V27.18V26.93C98.1044 26.93 97.7039 27.0021 97.3603 27.1558L97.4623 27.384ZM98.5543 27.18V27.43C98.9724 27.43 99.3314 27.5046 99.6369 27.6467L99.7423 27.42L99.8478 27.1933C99.4653 27.0154 99.0322 26.93 98.5543 26.93V27.18ZM99.7423 27.42L99.6432 27.6495C99.9536 27.7835 100.206 27.9865 100.403 28.2618L100.606 28.116L100.809 27.9702C100.559 27.6215 100.235 27.3605 99.8415 27.1905L99.7423 27.42ZM100.606 28.116L100.43 27.9392L99.7336 28.6352L99.9103 28.812L100.087 28.9888L100.783 28.2928L100.606 28.116ZM99.9103 28.812L100.109 28.6596C99.9238 28.4195 99.692 28.2342 99.4161 28.1055L99.3103 28.332L99.2046 28.5585C99.4087 28.6538 99.5768 28.7885 99.7122 28.9644L99.9103 28.812ZM99.3103 28.332L99.419 28.1069C99.1484 27.9762 98.8464 27.914 98.5183 27.914V28.164V28.414C98.7823 28.414 99.0083 28.4638 99.2017 28.5571L99.3103 28.332ZM98.5183 28.164V27.914C98.1819 27.914 97.8855 27.9734 97.6597 28.124L97.7983 28.332L97.937 28.54C98.0472 28.4666 98.2307 28.414 98.5183 28.414V28.164ZM97.7983 28.332L97.6621 28.1224C97.4306 28.2728 97.3083 28.5 97.3083 28.776H97.5583H97.8083C97.8083 28.668 97.8461 28.5992 97.9346 28.5416L97.7983 28.332ZM97.5583 28.776H97.3083C97.3083 29.0407 97.413 29.2674 97.628 29.4227L97.7743 29.22L97.9207 29.0173C97.8477 28.9646 97.8083 28.8953 97.8083 28.776H97.5583ZM97.7743 29.22L97.628 29.4227C97.8004 29.5472 98.0152 29.6455 98.2642 29.7228L98.3383 29.484L98.4124 29.2452C98.1975 29.1785 98.0363 29.1008 97.9207 29.0173L97.7743 29.22ZM98.3383 29.484L98.2665 29.7235C98.5055 29.7952 98.7526 29.8709 99.0078 29.9506L99.0823 29.712L99.1569 29.4734C98.9001 29.3931 98.6512 29.3168 98.4102 29.2445L98.3383 29.484ZM99.0823 29.712L99.0147 29.9527C99.2523 30.0195 99.4784 30.1122 99.6936 30.2309L99.8143 30.012L99.9351 29.7931C99.6863 29.6558 99.4244 29.5485 99.15 29.4713L99.0823 29.712ZM99.8143 30.012L99.6936 30.2309C99.8912 30.3399 100.049 30.4847 100.17 30.6667L100.378 30.528L100.586 30.3893C100.42 30.1393 100.201 29.94 99.9351 29.7931L99.8143 30.012ZM100.378 30.528L100.174 30.6719C100.288 30.8338 100.356 31.0626 100.356 31.38H100.606H100.856C100.856 30.9934 100.773 30.6542 100.583 30.3841L100.378 30.528ZM100.606 31.38H100.356C100.356 31.8479 100.193 32.1978 99.8727 32.458L100.03 32.652L100.188 32.846C100.636 32.4822 100.856 31.9841 100.856 31.38H100.606ZM100.03 32.652L99.8707 32.4596C99.5519 32.7242 99.1063 32.87 98.5063 32.87V33.12V33.37C99.1864 33.37 99.7568 33.2038 100.19 32.8444L100.03 32.652Z" fill="#007A3D"/>
</svg>
