<svg width="14" height="13" viewBox="0 0 14 13" fill="none" xmlns="http://www.w3.org/2000/svg">
<g clip-path="url(#clip0_115_60)">
<path d="M10.4489 1.40177L10.4031 3.8843C10.3965 4.22491 10.6127 4.67687 10.8878 4.87993L12.5122 6.11134C13.5537 6.89736 13.3834 7.86024 12.1389 8.25325L10.0232 8.91482C9.66945 9.02618 9.29609 9.41264 9.20439 9.7729L8.70002 11.6987C8.30046 13.2183 7.30483 13.369 6.47951 12.0327L5.32665 10.1659C5.11704 9.8253 4.61923 9.56984 4.22622 9.58949L2.03845 9.70085C0.472953 9.77945 0.0275393 8.87552 1.04937 7.68339L2.34631 6.17684C2.58867 5.89518 2.70002 5.37117 2.58867 5.01748L1.92055 2.89522C1.53409 1.65068 2.22841 0.962908 3.46639 1.36902L5.3987 2.00439C5.72623 2.10919 6.2175 2.03714 6.49261 1.83408L8.51007 0.37994C9.60395 -0.399533 10.4751 0.0589805 10.4489 1.40177Z" fill="#007A3D"/>
<path d="M13.1652 12.0979L11.1805 10.1132C10.9906 9.92321 10.6762 9.92321 10.4862 10.1132C10.2963 10.3031 10.2963 10.6175 10.4862 10.8075L12.4709 12.7922C12.5692 12.8905 12.6936 12.9363 12.8181 12.9363C12.9425 12.9363 13.067 12.8905 13.1652 12.7922C13.3552 12.6022 13.3552 12.2878 13.1652 12.0979Z" fill="#007A3D"/>
</g>
<defs>
<clipPath id="clip0_115_60">
<rect width="13" height="13" fill="white" transform="translate(0.5)"/>
</clipPath>
</defs>
</svg>
