<svg width="65" height="64" viewBox="0 0 65 64" fill="none" xmlns="http://www.w3.org/2000/svg">
<path d="M53.6654 21.1444C53.6866 21.6133 53.6972 22.0843 53.6972 22.5574C53.6972 36.9889 42.7117 53.6288 22.627 53.6288C16.4594 53.6288 10.7185 51.8208 5.88574 48.7221C6.74116 48.8235 7.60928 48.8753 8.49116 48.8753C13.6079 48.8753 18.3159 47.1295 22.0546 44.1998C17.2747 44.1122 13.2425 40.9546 11.8527 36.6161C12.5202 36.7439 13.2036 36.8125 13.9079 36.8125C14.9027 36.8125 15.8679 36.6785 16.7847 36.4292C11.7894 35.4258 8.02428 31.0124 8.02428 25.7214C8.02428 25.6749 8.02428 25.6295 8.02543 25.5841C9.49762 26.4015 11.1811 26.8927 12.9721 26.9496C10.0415 24.9917 8.11408 21.6491 8.11408 17.8598C8.11408 15.8586 8.65158 13.983 9.59251 12.3703C14.9787 18.9771 23.0239 23.324 32.1 23.7803C31.9142 22.9808 31.8169 22.1476 31.8169 21.2911C31.8169 15.2608 36.7066 10.3711 42.7369 10.3711C45.8799 10.3711 48.7165 11.6976 50.7082 13.8192C53.1965 13.3303 55.5325 12.421 57.6425 11.1694C56.8272 13.7199 55.0973 15.8595 52.8416 17.2113C55.0508 16.9472 57.1568 16.3602 59.1147 15.492C57.6511 17.6814 55.7988 19.6045 53.6654 21.1444Z" fill="#007A3D" fill-opacity="0.1" stroke="#007A3D" stroke-width="2"/>
</svg>
