<svg width="121" height="70" viewBox="0 0 121 70" fill="none" xmlns="http://www.w3.org/2000/svg">
<g clip-path="url(#clip0_115_69)">
<path d="M113.5 0H7.5C3.63401 0 0.5 3.13401 0.5 7V63C0.5 66.866 3.63401 70 7.5 70H113.5C117.366 70 120.5 66.866 120.5 63V7C120.5 3.13401 117.366 0 113.5 0Z" fill="#007A3D" fill-opacity="0.1"/>
<path d="M113.5 0.5H7.5C3.91015 0.5 1 3.41015 1 7V63C1 66.5899 3.91015 69.5 7.5 69.5H113.5C117.09 69.5 120 66.5899 120 63V7C120 3.41015 117.09 0.5 113.5 0.5Z" stroke="#007A3D" stroke-opacity="0.2" stroke-dasharray="2 2"/>
<path d="M74.6503 28.2963C74.2048 24.7433 70.9639 20.8055 68.2299 18.4933C67.3805 17.775 66.209 17.2246 64.5945 17.0394C62.6138 16.853 61.1338 17.3507 60.052 18.0598C58.4066 19.1386 55.3515 20.002 53.6156 20.9281C51.7721 21.9767 50.0889 24.386 48.6818 25.9728C48.0324 26.7052 47.5469 27.7133 47.5469 29.0904C47.6409 33.0566 51.9384 33.2736 52.326 33.2851C52.3466 33.2857 52.3642 33.2857 52.3849 33.2857H57.5838C58.796 33.2857 59.7787 32.303 59.7787 31.0908V29.5647C59.7787 29.1953 59.4792 28.8958 59.1098 28.8958C58.5006 28.8958 58.2085 28.1478 58.6565 27.7349L60.3163 26.2055C60.9098 25.6586 61.8237 25.6586 62.4173 26.2055L64.077 27.7349C64.5251 28.1478 64.233 28.8958 63.6237 28.8958C63.2543 28.8958 62.9548 29.1953 62.9548 29.5647V31.0908C62.9548 32.303 63.9375 33.2857 65.1498 33.2857H69.6744C69.6766 33.2857 69.6764 33.2857 69.6787 33.2857C69.7507 33.2855 74.0659 33.2571 74.6761 29.3384C74.7014 28.9658 74.6908 28.619 74.6503 28.2963Z" fill="#007A3D"/>
<path d="M38.6581 39.2243V44.9573C38.6581 45.7633 38.8531 46.3613 39.2431 46.7513C39.6418 47.1413 40.1921 47.3363 40.8941 47.3363C41.5874 47.3363 42.1291 47.1413 42.5191 46.7513C42.9178 46.3613 43.1171 45.7633 43.1171 44.9573V39.2243H44.3001V44.9443C44.3001 45.6983 44.1484 46.3353 43.8451 46.8553C43.5418 47.3666 43.1301 47.7479 42.6101 47.9993C42.0988 48.2506 41.5224 48.3763 40.8811 48.3763C40.2398 48.3763 39.6591 48.2506 39.1391 47.9993C38.6278 47.7479 38.2204 47.3666 37.9171 46.8553C37.6224 46.3353 37.4751 45.6983 37.4751 44.9443V39.2243H38.6581ZM47.4566 42.4743C47.6906 42.0669 48.0372 41.7289 48.4966 41.4603C48.9646 41.1829 49.5062 41.0443 50.1216 41.0443C50.7542 41.0443 51.3262 41.1959 51.8376 41.4993C52.3576 41.8026 52.7649 42.2316 53.0596 42.7863C53.3542 43.3323 53.5016 43.9693 53.5016 44.6973C53.5016 45.4166 53.3542 46.0579 53.0596 46.6213C52.7649 47.1846 52.3576 47.6223 51.8376 47.9343C51.3262 48.2463 50.7542 48.4023 50.1216 48.4023C49.5149 48.4023 48.9776 48.2679 48.5096 47.9993C48.0502 47.7219 47.6992 47.3796 47.4566 46.9723V51.6653H46.2736V41.1613H47.4566V42.4743ZM52.2926 44.6973C52.2926 44.1599 52.1842 43.6919 51.9676 43.2933C51.7509 42.8946 51.4562 42.5913 51.0836 42.3833C50.7196 42.1753 50.3166 42.0713 49.8746 42.0713C49.4412 42.0713 49.0382 42.1796 48.6656 42.3963C48.3016 42.6043 48.0069 42.9119 47.7816 43.3193C47.5649 43.7179 47.4566 44.1816 47.4566 44.7103C47.4566 45.2476 47.5649 45.7199 47.7816 46.1273C48.0069 46.5259 48.3016 46.8336 48.6656 47.0503C49.0382 47.2583 49.4412 47.3623 49.8746 47.3623C50.3166 47.3623 50.7196 47.2583 51.0836 47.0503C51.4562 46.8336 51.7509 46.5259 51.9676 46.1273C52.1842 45.7199 52.2926 45.2433 52.2926 44.6973ZM56.2417 38.6653V48.2853H55.0587V38.6653H56.2417ZM61.3649 48.4023C60.6976 48.4023 60.0909 48.2506 59.5449 47.9473C59.0076 47.6439 58.5829 47.2149 58.2709 46.6603C57.9676 46.0969 57.8159 45.4469 57.8159 44.7103C57.8159 43.9823 57.9719 43.3409 58.2839 42.7863C58.6046 42.2229 59.0379 41.7939 59.5839 41.4993C60.1299 41.1959 60.7409 41.0443 61.4169 41.0443C62.0929 41.0443 62.7039 41.1959 63.2499 41.4993C63.7959 41.7939 64.2249 42.2186 64.5369 42.7733C64.8576 43.3279 65.0179 43.9736 65.0179 44.7103C65.0179 45.4469 64.8533 46.0969 64.5239 46.6603C64.2033 47.2149 63.7656 47.6439 63.2109 47.9473C62.6563 48.2506 62.0409 48.4023 61.3649 48.4023ZM61.3649 47.3623C61.7896 47.3623 62.1883 47.2626 62.5609 47.0633C62.9336 46.8639 63.2326 46.5649 63.4579 46.1663C63.6919 45.7676 63.8089 45.2823 63.8089 44.7103C63.8089 44.1383 63.6963 43.6529 63.4709 43.2543C63.2456 42.8556 62.9509 42.5609 62.5869 42.3703C62.2229 42.1709 61.8286 42.0713 61.4039 42.0713C60.9706 42.0713 60.5719 42.1709 60.2079 42.3703C59.8526 42.5609 59.5666 42.8556 59.3499 43.2543C59.1333 43.6529 59.0249 44.1383 59.0249 44.7103C59.0249 45.2909 59.1289 45.7806 59.3369 46.1793C59.5536 46.5779 59.8396 46.8769 60.1949 47.0763C60.5503 47.2669 60.9403 47.3623 61.3649 47.3623ZM66.1314 44.6973C66.1314 43.9693 66.2787 43.3323 66.5734 42.7863C66.868 42.2316 67.271 41.8026 67.7824 41.4993C68.3024 41.1959 68.8787 41.0443 69.5114 41.0443C70.1354 41.0443 70.677 41.1786 71.1364 41.4473C71.5957 41.7159 71.938 42.0539 72.1634 42.4613V41.1613H73.3594V48.2853H72.1634V46.9593C71.9294 47.3753 71.5784 47.7219 71.1104 47.9993C70.651 48.2679 70.1137 48.4023 69.4984 48.4023C68.8657 48.4023 68.2937 48.2463 67.7824 47.9343C67.271 47.6223 66.868 47.1846 66.5734 46.6213C66.2787 46.0579 66.1314 45.4166 66.1314 44.6973ZM72.1634 44.7103C72.1634 44.1729 72.055 43.7049 71.8384 43.3063C71.6217 42.9076 71.327 42.6043 70.9544 42.3963C70.5904 42.1796 70.1874 42.0713 69.7454 42.0713C69.3034 42.0713 68.9004 42.1753 68.5364 42.3833C68.1724 42.5913 67.882 42.8946 67.6654 43.2933C67.4487 43.6919 67.3404 44.1599 67.3404 44.6973C67.3404 45.2433 67.4487 45.7199 67.6654 46.1273C67.882 46.5259 68.1724 46.8336 68.5364 47.0503C68.9004 47.2583 69.3034 47.3623 69.7454 47.3623C70.1874 47.3623 70.5904 47.2583 70.9544 47.0503C71.327 46.8336 71.6217 46.5259 71.8384 46.1273C72.055 45.7199 72.1634 45.2476 72.1634 44.7103ZM74.9165 44.6973C74.9165 43.9693 75.0639 43.3323 75.3585 42.7863C75.6532 42.2316 76.0562 41.8026 76.5675 41.4993C77.0875 41.1959 77.6682 41.0443 78.3095 41.0443C78.8642 41.0443 79.3799 41.1743 79.8565 41.4343C80.3332 41.6856 80.6972 42.0193 80.9485 42.4353V38.6653H82.1445V48.2853H80.9485V46.9463C80.7145 47.3709 80.3679 47.7219 79.9085 47.9993C79.4492 48.2679 78.9119 48.4023 78.2965 48.4023C77.6639 48.4023 77.0875 48.2463 76.5675 47.9343C76.0562 47.6223 75.6532 47.1846 75.3585 46.6213C75.0639 46.0579 74.9165 45.4166 74.9165 44.6973ZM80.9485 44.7103C80.9485 44.1729 80.8402 43.7049 80.6235 43.3063C80.4069 42.9076 80.1122 42.6043 79.7395 42.3963C79.3755 42.1796 78.9725 42.0713 78.5305 42.0713C78.0885 42.0713 77.6855 42.1753 77.3215 42.3833C76.9575 42.5913 76.6672 42.8946 76.4505 43.2933C76.2339 43.6919 76.1255 44.1599 76.1255 44.6973C76.1255 45.2433 76.2339 45.7199 76.4505 46.1273C76.6672 46.5259 76.9575 46.8336 77.3215 47.0503C77.6855 47.2583 78.0885 47.3623 78.5305 47.3623C78.9725 47.3623 79.3755 47.2583 79.7395 47.0503C80.1122 46.8336 80.4069 46.5259 80.6235 46.1273C80.8402 45.7199 80.9485 45.2476 80.9485 44.7103Z" fill="#007A3D"/>
</g>
<defs>
<clipPath id="clip0_115_69">
<rect width="120" height="70" fill="white" transform="translate(0.5)"/>
</clipPath>
</defs>
</svg>
