<svg width="40" height="40" viewBox="0 0 40 40" fill="none" xmlns="http://www.w3.org/2000/svg">
<path d="M5.62402 6.9126H21.7578C20.569 8.01266 19.5057 9.18418 18.5762 10.3335H5.62305C5.16669 10.3363 4.76762 10.5014 4.46191 10.7827L4.45996 10.7847C4.15612 11.0712 3.97133 11.4488 3.96973 11.8911V34.771C3.97131 35.2146 4.15633 35.591 4.45996 35.8774L4.46191 35.8794C4.76758 36.1605 5.16666 36.3258 5.62305 36.3286H30.2363C30.6953 36.3258 31.0927 36.1607 31.3984 35.8794L31.4004 35.8774C31.7036 35.5914 31.891 35.2153 31.8926 34.771V20.561C32.4577 20.0309 32.9236 19.4878 33.2588 18.9575C33.5759 18.4558 33.7827 17.9537 33.8389 17.48C34.4892 17.1372 35.0803 16.7583 35.6104 16.3608V34.771C35.6115 36.1335 35.0103 37.3892 34.0439 38.2856L34.043 38.2866C33.0789 39.1853 31.7199 39.7494 30.2354 39.7495H5.62402C4.14192 39.7494 2.78247 39.1854 1.81836 38.2866V38.2856L1.64062 38.1138C0.776409 37.2323 0.248883 36.0486 0.25 34.771V11.8921L0.256836 11.6382C0.320632 10.4585 0.8337 9.374 1.64062 8.54932L1.81836 8.37646C2.78271 7.47738 4.14213 6.91145 5.62402 6.9126Z" fill="#A67C52" fill-opacity="0.1" stroke="#A67C52" stroke-width="0.5"/>
<path d="M39.7354 0.550781C39.7483 0.837627 39.7576 1.23023 39.7412 1.69727C39.7056 2.71269 39.5563 4.07402 39.1055 5.4668C38.6547 6.85921 37.9045 8.27552 36.6719 9.41211C35.4415 10.5465 33.7163 11.4158 31.292 11.6953L30.5352 11.7822L31.1963 12.1602C31.4105 12.2826 31.9966 12.515 32.7783 12.626C33.5335 12.7331 34.4874 12.728 35.4834 12.3916C35.4806 12.4596 35.4454 12.5864 35.333 12.7725C35.102 13.155 34.6269 13.6704 33.9297 14.2021C32.54 15.262 30.3201 16.3458 27.5723 16.5547L27.5635 16.5557L27.5557 16.5566C27.2602 16.5999 27.0375 16.6518 26.8926 16.7168C26.8255 16.7469 26.736 16.7966 26.6787 16.8828C26.6463 16.9318 26.6222 16.996 26.625 17.0693C26.6278 17.141 26.6555 17.1998 26.6855 17.2422C26.7399 17.3187 26.8196 17.3661 26.8789 17.3955C26.945 17.4282 27.0227 17.4562 27.1055 17.4805C27.2719 17.5292 27.4844 17.5702 27.7227 17.6016C28.2001 17.6643 28.8067 17.6919 29.4102 17.6562C29.9546 17.6241 30.512 17.5382 30.9736 17.373C30.941 17.4437 30.8922 17.5306 30.8232 17.6318C30.5289 18.0641 29.9377 18.6858 29.0967 19.3291C27.4175 20.6135 24.7941 21.9472 21.6855 22.0381C19.4064 22.1046 17.7946 23.3164 16.4062 25.0947C15.0288 26.8591 13.8338 29.2337 12.415 31.6611C11.7027 32.8778 10.8235 33.0239 10.3438 32.7617C9.89699 32.5174 9.58098 31.7989 10.0859 30.7451L10.1982 30.5303L10.2021 30.5234V30.5225C10.2027 30.5213 10.2039 30.5198 10.2051 30.5176C10.2075 30.513 10.2111 30.506 10.2158 30.4971C10.2254 30.4789 10.2402 30.4513 10.2588 30.416C10.296 30.3455 10.3509 30.242 10.4209 30.1094C10.5613 29.8434 10.7634 29.4604 11.0098 28.9941C11.5025 28.0615 12.1727 26.7935 12.8828 25.4541C14.3037 22.7741 15.882 19.8097 16.5186 18.6611L16.5225 18.6543L16.5264 18.6465L16.5273 18.6455C16.5279 18.6444 16.5282 18.642 16.5293 18.6396C16.5317 18.6346 16.536 18.6266 16.541 18.6162C16.551 18.5955 16.5659 18.5642 16.5859 18.5234C16.6262 18.4419 16.6867 18.3215 16.7666 18.167C16.9268 17.8574 17.166 17.4108 17.4795 16.8662C18.1069 15.7764 19.0329 14.2944 20.2256 12.7275C22.6165 9.5864 26.0553 6.13504 30.2871 4.77734C34.52 3.41954 36.9723 2.27865 38.3711 1.4707C39.0377 1.08566 39.4658 0.774039 39.7354 0.550781Z" fill="#007A3D" fill-opacity="0.1" stroke="#007A3D" stroke-width="0.5"/>
</svg>
